<svg xmlns="http://www.w3.org/2000/svg" xmlns:xlink="http://www.w3.org/1999/xlink" version="1.1" class="marks" width="448" height="1062" viewBox="0 0 448 1062"><rect width="448" height="1062" fill="white"/><g fill="none" stroke-miterlimit="10" transform="translate(70,11)"><g class="mark-group role-frame root" role="graphics-object" aria-roledescription="group mark container"><g transform="translate(0,0)"><path class="background" aria-hidden="true" d="M0,0h300v0h-300Z"/><g><g class="mark-group role-scope concat_0_group" role="graphics-object" aria-roledescription="group mark container"><g transform="translate(0,0)"><path class="background" aria-hidden="true" d="M0.5,0.5h300v300h-300Z" stroke="#ddd"/><g><g class="mark-group role-axis" aria-hidden="true"><g transform="translate(0.5,300.5)"><path class="background" aria-hidden="true" d="M0,0h0v0h0Z" pointer-events="none"/><g><g class="mark-rule role-axis-grid" pointer-events="none"><line transform="translate(32,-300)" x2="0" y2="300" stroke="#ddd" stroke-width="1" opacity="1"/><line transform="translate(86,-300)" x2="0" y2="300" stroke="#ddd" stroke-width="1" opacity="1"/><line transform="translate(139,-300)" x2="0" y2="300" stroke="#ddd" stroke-width="1" opacity="1"/><line transform="translate(193,-300)" x2="0" y2="300" stroke="#ddd" stroke-width="1" opacity="1"/><line transform="translate(246,-300)" x2="0" y2="300" stroke="#ddd" stroke-width="1" opacity="1"/><line transform="translate(300,-300)" x2="0" y2="300" stroke="#ddd" stroke-width="1" opacity="1"/></g></g><path class="foreground" aria-hidden="true" d="" pointer-events="none" display="none"/></g></g><g class="mark-group role-axis" aria-hidden="true"><g transform="translate(0.5,0.5)"><path class="background" aria-hidden="true" d="M0,0h0v0h0Z" pointer-events="none"/><g><g class="mark-rule role-axis-grid" pointer-events="none"><line transform="translate(0,300)" x2="300" y2="0" stroke="#ddd" stroke-width="1" opacity="1"/><line transform="translate(0,257)" x2="300" y2="0" stroke="#ddd" stroke-width="1" opacity="1"/><line transform="translate(0,214)" x2="300" y2="0" stroke="#ddd" stroke-width="1" opacity="1"/><line transform="translate(0,171)" x2="300" y2="0" stroke="#ddd" stroke-width="1" opacity="1"/><line transform="translate(0,129)" x2="300" y2="0" stroke="#ddd" stroke-width="1" opacity="1"/><line transform="translate(0,86)" x2="300" y2="0" stroke="#ddd" stroke-width="1" opacity="1"/><line transform="translate(0,43)" x2="300" y2="0" stroke="#ddd" stroke-width="1" opacity="1"/><line transform="translate(0,0)" x2="300" y2="0" stroke="#ddd" stroke-width="1" opacity="1"/></g></g><path class="foreground" aria-hidden="true" d="" pointer-events="none" display="none"/></g></g><g class="mark-group role-axis" role="graphics-symbol" aria-roledescription="axis" aria-label="X-axis titled '𝑇 (K)' for a linear scale with values from 200 to 3,000"><g transform="translate(0.5,300.5)"><path class="background" aria-hidden="true" d="M0,0h0v0h0Z" pointer-events="none"/><g><g class="mark-rule role-axis-tick" pointer-events="none"><line transform="translate(32,0)" x2="0" y2="5" stroke="#888" stroke-width="1" opacity="1"/><line transform="translate(86,0)" x2="0" y2="5" stroke="#888" stroke-width="1" opacity="1"/><line transform="translate(139,0)" x2="0" y2="5" stroke="#888" stroke-width="1" opacity="1"/><line transform="translate(193,0)" x2="0" y2="5" stroke="#888" stroke-width="1" opacity="1"/><line transform="translate(246,0)" x2="0" y2="5" stroke="#888" stroke-width="1" opacity="1"/><line transform="translate(300,0)" x2="0" y2="5" stroke="#888" stroke-width="1" opacity="1"/></g><g class="mark-text role-axis-label" pointer-events="none"><text text-anchor="middle" transform="translate(32.14285714285714,15)" font-family="sans-serif" font-size="10px" fill="#000" opacity="1">500</text><text text-anchor="middle" transform="translate(85.71428571428571,15)" font-family="sans-serif" font-size="10px" fill="#000" opacity="1">1,000</text><text text-anchor="middle" transform="translate(139.28571428571428,15)" font-family="sans-serif" font-size="10px" fill="#000" opacity="1">1,500</text><text text-anchor="middle" transform="translate(192.85714285714286,15)" font-family="sans-serif" font-size="10px" fill="#000" opacity="1">2,000</text><text text-anchor="middle" transform="translate(246.42857142857142,15)" font-family="sans-serif" font-size="10px" fill="#000" opacity="1">2,500</text><text text-anchor="end" transform="translate(300,15)" font-family="sans-serif" font-size="10px" fill="#000" opacity="1">3,000</text></g><g class="mark-rule role-axis-domain" pointer-events="none"><line transform="translate(0,0)" x2="300" y2="0" stroke="#888" stroke-width="1" opacity="1"/></g><g class="mark-text role-axis-title" pointer-events="none"><text text-anchor="middle" transform="translate(150,30)" font-family="sans-serif" font-size="11px" font-weight="bold" fill="#000" opacity="1">𝑇 (K)</text></g></g><path class="foreground" aria-hidden="true" d="" pointer-events="none" display="none"/></g></g><g class="mark-group role-axis" role="graphics-symbol" aria-roledescription="axis" aria-label="Y-axis titled '𝐶ₚ (cal/K/mol)' for a linear scale with values from 0 to 70"><g transform="translate(0.5,0.5)"><path class="background" aria-hidden="true" d="M0,0h0v0h0Z" pointer-events="none"/><g><g class="mark-rule role-axis-tick" pointer-events="none"><line transform="translate(0,300)" x2="-5" y2="0" stroke="#888" stroke-width="1" opacity="1"/><line transform="translate(0,257)" x2="-5" y2="0" stroke="#888" stroke-width="1" opacity="1"/><line transform="translate(0,214)" x2="-5" y2="0" stroke="#888" stroke-width="1" opacity="1"/><line transform="translate(0,171)" x2="-5" y2="0" stroke="#888" stroke-width="1" opacity="1"/><line transform="translate(0,129)" x2="-5" y2="0" stroke="#888" stroke-width="1" opacity="1"/><line transform="translate(0,86)" x2="-5" y2="0" stroke="#888" stroke-width="1" opacity="1"/><line transform="translate(0,43)" x2="-5" y2="0" stroke="#888" stroke-width="1" opacity="1"/><line transform="translate(0,0)" x2="-5" y2="0" stroke="#888" stroke-width="1" opacity="1"/></g><g class="mark-text role-axis-label" pointer-events="none"><text text-anchor="end" transform="translate(-7,303)" font-family="sans-serif" font-size="10px" fill="#000" opacity="1">0</text><text text-anchor="end" transform="translate(-7,260.14285714285717)" font-family="sans-serif" font-size="10px" fill="#000" opacity="1">10</text><text text-anchor="end" transform="translate(-7,217.28571428571428)" font-family="sans-serif" font-size="10px" fill="#000" opacity="1">20</text><text text-anchor="end" transform="translate(-7,174.42857142857142)" font-family="sans-serif" font-size="10px" fill="#000" opacity="1">30</text><text text-anchor="end" transform="translate(-7,131.57142857142858)" font-family="sans-serif" font-size="10px" fill="#000" opacity="1">40</text><text text-anchor="end" transform="translate(-7,88.71428571428571)" font-family="sans-serif" font-size="10px" fill="#000" opacity="1">50</text><text text-anchor="end" transform="translate(-7,45.85714285714287)" font-family="sans-serif" font-size="10px" fill="#000" opacity="1">60</text><text text-anchor="end" transform="translate(-7,3)" font-family="sans-serif" font-size="10px" fill="#000" opacity="1">70</text></g><g class="mark-rule role-axis-domain" pointer-events="none"><line transform="translate(0,300)" x2="0" y2="-300" stroke="#888" stroke-width="1" opacity="1"/></g><g class="mark-text role-axis-title" pointer-events="none"><text text-anchor="middle" transform="translate(-22.123046875,150) rotate(-90) translate(0,-2)" font-family="sans-serif" font-size="11px" font-weight="bold" fill="#000" opacity="1">𝐶ₚ (cal/K/mol)</text></g></g><path class="foreground" aria-hidden="true" d="" pointer-events="none" display="none"/></g></g><g class="mark-group role-scope concat_0_pathgroup" role="graphics-object" aria-roledescription="group mark container"><g transform="translate(0,0)"><path class="background" aria-hidden="true" d="M0,0h300v300h-300Z"/><g><g class="mark-line role-mark concat_0_marks" role="graphics-object" aria-roledescription="line mark container"><path aria-label="𝑇 (K): 200; 𝐶ₚ (cal/K/mol): 11.9594881753; key: original" role="graphics-symbol" aria-roledescription="line mark" d="M0,248.745L0.601,247.918L1.202,247.09L1.804,246.261L2.405,245.431L3.006,244.6L3.607,243.769L4.208,242.938L4.81,242.108L5.411,241.278L6.012,240.449L6.613,239.621L7.214,238.794L7.816,237.969L8.417,237.146L9.018,236.325L9.619,235.506L10.22,234.689L10.822,233.876L11.423,233.065L12.024,232.258L12.625,231.454L13.226,230.653L13.828,229.857L14.429,229.064L15.03,228.276L15.631,227.492L16.232,226.713L16.834,225.939L17.435,225.169L18.036,224.405L18.637,223.646L19.238,222.893L19.84,222.145L20.441,221.403L21.042,220.667L21.643,219.937L22.244,219.214L22.846,218.497L23.447,217.786L24.048,217.082L24.649,216.385L25.251,215.695L25.852,215.012L26.453,214.336L27.054,213.667L27.655,213.006L28.257,212.352L28.858,211.706L29.459,211.068L30.06,210.437L30.661,209.815L31.263,209.2L31.864,208.593L32.465,207.995L33.066,207.405L33.667,206.822L34.269,206.249L34.87,205.683L35.471,205.126L36.072,204.578L36.673,204.038L37.275,203.507L37.876,202.984L38.477,202.47L39.078,201.964L39.679,201.468L40.281,200.98L40.882,200.5L41.483,200.03L42.084,199.568L42.685,199.115L43.287,198.671L43.888,198.235L44.489,197.808L45.09,197.39L45.691,196.981L46.293,196.58L46.894,196.188L47.495,195.805L48.096,195.43L48.697,195.064L49.299,194.706L49.9,194.357L50.501,194.016L51.102,193.684L51.703,193.359L52.305,193.044L52.906,192.736L53.507,192.436L54.108,192.145L54.709,191.861L55.311,191.585L55.912,191.317L56.513,191.057L57.114,190.804L57.715,190.558L58.317,190.32L58.918,190.09L59.519,189.866L60.12,189.65L60.721,189.44L61.323,189.237L61.924,189.041L62.525,188.851L63.126,188.668L63.727,188.491L64.329,188.319L64.93,188.154L65.531,187.995L66.132,187.841L66.733,187.693L67.335,187.55L67.936,187.412L68.537,187.279L69.138,187.15L69.739,187.026L70.341,186.907L70.942,186.792L71.543,186.68L72.144,186.573L72.745,186.469L73.347,186.368L73.948,186.271L74.549,186.176L75.15,186.084L75.752,185.995L76.353,185.908L76.954,185.822L77.555,185.739L78.156,185.657L78.758,185.576L79.359,185.496L79.96,185.417L80.561,185.339L81.162,185.26L81.764,185.182L82.365,185.104L82.966,185.025L83.567,184.947L84.168,184.869L84.77,184.79L85.371,184.712L85.972,184.633L86.573,184.555L87.174,184.476L87.776,184.398L88.377,184.319L88.978,184.24L89.579,184.162L90.18,184.083L90.782,184.004L91.383,183.926L91.984,183.847L92.585,183.768L93.186,183.689L93.788,183.61L94.389,183.532L94.99,183.453L95.591,183.374L96.192,183.295L96.794,183.216L97.395,183.137L97.996,183.058L98.597,182.979L99.198,182.899L99.8,182.82L100.401,182.741L101.002,182.662L101.603,182.583L102.204,182.503L102.806,182.424L103.407,182.345L104.008,182.265L104.609,182.186L105.21,182.107L105.812,182.027L106.413,181.948L107.014,181.868L107.615,181.788L108.216,181.709L108.818,181.629L109.419,181.549L110.02,181.47L110.621,181.39L111.222,181.31L111.824,181.23L112.425,181.15L113.026,181.07L113.627,180.991L114.228,180.911L114.83,180.831L115.431,180.75L116.032,180.67L116.633,180.59L117.234,180.51L117.836,180.43L118.437,180.35L119.038,180.269L119.639,180.189L120.24,180.109L120.842,180.028L121.443,179.948L122.044,179.867L122.645,179.787L123.246,179.706L123.848,179.625L124.449,179.545L125.05,179.464L125.651,179.383L126.253,179.303L126.854,179.222L127.455,179.141L128.056,179.06L128.657,178.979L129.259,178.898L129.86,178.817L130.461,178.736L131.062,178.655L131.663,178.574L132.265,178.493L132.866,178.411L133.467,178.33L134.068,178.249L134.669,178.167L135.271,178.086L135.872,178.004L136.473,177.923L137.074,177.841L137.675,177.76L138.277,177.678L138.878,177.597L139.479,177.515L140.08,177.433L140.681,177.351L141.283,177.269L141.884,177.188L142.485,177.106L143.086,177.024L143.687,176.942L144.289,176.86L144.89,176.777L145.491,176.695L146.092,176.613L146.693,176.531L147.295,176.449L147.896,176.366L148.497,176.284L149.098,176.201L149.699,176.119L150.301,176.036L150.902,175.954L151.503,175.871L152.104,175.789L152.705,175.706L153.307,175.623L153.908,175.54L154.509,175.458L155.11,175.375L155.711,175.292L156.313,175.209L156.914,175.126L157.515,175.043L158.116,174.96L158.717,174.876L159.319,174.793L159.92,174.71L160.521,174.627L161.122,174.543L161.723,174.46L162.325,174.377L162.926,174.293L163.527,174.21L164.128,174.126L164.729,174.043L165.331,173.959L165.932,173.875L166.533,173.792L167.134,173.708L167.735,173.624L168.337,173.54L168.938,173.456L169.539,173.372L170.14,173.288L170.741,173.204L171.343,173.12L171.944,173.036L172.545,172.952L173.146,172.868L173.747,172.783L174.349,172.699L174.95,172.615L175.551,172.53L176.152,172.446L176.754,172.361L177.355,172.277L177.956,172.192L178.557,172.108L179.158,172.023L179.76,171.938L180.361,171.854L180.962,171.769L181.563,171.684L182.164,171.599L182.766,171.514L183.367,171.429L183.968,171.344L184.569,171.259L185.17,171.174L185.772,171.089L186.373,171.004L186.974,170.919L187.575,170.833L188.176,170.748L188.778,170.663L189.379,170.577L189.98,170.492L190.581,170.406L191.182,170.321L191.784,170.235L192.385,170.15L192.986,170.064L193.587,169.979L194.188,169.893L194.79,169.807L195.391,169.721L195.992,169.636L196.593,169.55L197.194,169.464L197.796,169.378L198.397,169.292L198.998,169.206L199.599,169.12L200.2,169.034L200.802,168.948L201.403,168.861L202.004,168.775L202.605,168.689L203.206,168.603L203.808,168.516L204.409,168.43L205.01,168.344L205.611,168.257L206.212,168.171L206.814,168.084L207.415,167.998L208.016,167.911L208.617,167.825L209.218,167.738L209.82,167.651L210.421,167.565L211.022,167.478L211.623,167.391L212.224,167.304L212.826,167.217L213.427,167.131L214.028,167.044L214.629,166.957L215.23,166.87L215.832,166.783L216.433,166.696L217.034,166.609L217.635,166.522L218.236,166.434L218.838,166.347L219.439,166.26L220.04,166.173L220.641,166.086L221.242,165.998L221.844,165.911L222.445,165.824L223.046,165.736L223.647,165.649L224.248,165.562L224.85,165.474L225.451,165.387L226.052,165.299L226.653,165.212L227.255,165.124L227.856,165.036L228.457,164.949L229.058,164.861L229.659,164.774L230.261,164.686L230.862,164.598L231.463,164.51L232.064,164.423L232.665,164.335L233.267,164.247L233.868,164.159L234.469,164.071L235.07,163.984L235.671,163.896L236.273,163.808L236.874,163.72L237.475,163.632L238.076,163.544L238.677,163.456L239.279,163.368L239.88,163.28L240.481,163.192L241.082,163.104L241.683,163.016L242.285,162.927L242.886,162.839L243.487,162.751L244.088,162.663L244.689,162.575L245.291,162.487L245.892,162.398L246.493,162.31L247.094,162.222L247.695,162.134L248.297,162.046L248.898,161.957L249.499,161.869L250.1,161.781L250.701,161.692L251.303,161.604L251.904,161.516L252.505,161.427L253.106,161.339L253.707,161.251L254.309,161.162L254.91,161.074L255.511,160.986L256.112,160.897L256.713,160.809L257.315,160.72L257.916,160.632L258.517,160.543L259.118,160.455L259.719,160.367L260.321,160.278L260.922,160.19L261.523,160.101L262.124,160.013L262.725,159.924L263.327,159.836L263.928,159.747L264.529,159.659L265.13,159.571L265.731,159.482L266.333,159.394L266.934,159.305L267.535,159.217L268.136,159.128L268.737,159.04L269.339,158.951L269.94,158.863L270.541,158.775L271.142,158.686L271.743,158.598L272.345,158.509L272.946,158.421L273.547,158.332L274.148,158.244L274.749,158.156L275.351,158.067L275.952,157.979L276.553,157.891L277.154,157.802L277.756,157.714L278.357,157.626L278.958,157.537L279.559,157.449L280.16,157.361L280.762,157.272L281.363,157.184L281.964,157.096L282.565,157.008L283.166,156.919L283.768,156.831L284.369,156.743L284.97,156.655L285.571,156.567L286.172,156.478L286.774,156.39L287.375,156.302L287.976,156.214L288.577,156.126L289.178,156.038L289.78,155.95L290.381,155.862L290.982,155.774L291.583,155.686L292.184,155.598L292.786,155.51L293.387,155.422L293.988,155.335L294.589,155.247L295.19,155.159L295.792,155.071L296.393,154.984L296.994,154.896L297.595,154.808L298.196,154.721L298.798,154.633L299.399,154.545L300,154.458" stroke="#0066ff" stroke-width="2"/></g></g><path class="foreground" aria-hidden="true" d="" display="none"/></g><g transform="translate(0,0)"><path class="background" aria-hidden="true" d="M0,0h300v300h-300Z"/><g><g class="mark-line role-mark concat_0_marks" role="graphics-object" aria-roledescription="line mark container"><path aria-label="𝑇 (K): 200; 𝐶ₚ (cal/K/mol): 23.9189763507; key: doubled" role="graphics-symbol" aria-roledescription="line mark" d="M0,197.49L0.601,195.836L1.202,194.18L1.804,192.521L2.405,190.861L3.006,189.2L3.607,187.538L4.208,185.877L4.81,184.216L5.411,182.556L6.012,180.898L6.613,179.241L7.214,177.588L7.816,175.938L8.417,174.291L9.018,172.649L9.619,171.011L10.22,169.379L10.822,167.751L11.423,166.13L12.024,164.516L12.625,162.908L13.226,161.307L13.828,159.714L14.429,158.129L15.03,156.553L15.631,154.985L16.232,153.427L16.834,151.878L17.435,150.339L18.036,148.81L18.637,147.293L19.238,145.786L19.84,144.29L20.441,142.806L21.042,141.334L21.643,139.875L22.244,138.428L22.846,136.993L23.447,135.572L24.048,134.164L24.649,132.77L25.251,131.39L25.852,130.024L26.453,128.672L27.054,127.335L27.655,126.012L28.257,124.705L28.858,123.413L29.459,122.136L30.06,120.875L30.661,119.63L31.263,118.4L31.864,117.187L32.465,115.99L33.066,114.809L33.667,113.645L34.269,112.497L34.87,111.367L35.471,110.253L36.072,109.156L36.673,108.076L37.275,107.013L37.876,105.968L38.477,104.939L39.078,103.929L39.679,102.935L40.281,101.959L40.882,101L41.483,100.059L42.084,99.136L42.685,98.23L43.287,97.341L43.888,96.47L44.489,95.617L45.09,94.78L45.691,93.962L46.293,93.16L46.894,92.376L47.495,91.61L48.096,90.86L48.697,90.128L49.299,89.412L49.9,88.714L50.501,88.032L51.102,87.367L51.703,86.719L52.305,86.087L52.906,85.472L53.507,84.872L54.108,84.289L54.709,83.722L55.311,83.17L55.912,82.634L56.513,82.113L57.114,81.608L57.715,81.117L58.317,80.641L58.918,80.179L59.519,79.732L60.12,79.299L60.721,78.88L61.323,78.474L61.924,78.082L62.525,77.702L63.126,77.335L63.727,76.981L64.329,76.639L64.93,76.309L65.531,75.99L66.132,75.682L66.733,75.385L67.335,75.099L67.936,74.823L68.537,74.557L69.138,74.301L69.739,74.053L70.341,73.814L70.942,73.584L71.543,73.361L72.144,73.146L72.745,72.938L73.347,72.737L73.948,72.542L74.549,72.352L75.15,72.169L75.752,71.99L76.353,71.815L76.954,71.645L77.555,71.478L78.156,71.314L78.758,71.152L79.359,70.993L79.96,70.835L80.561,70.678L81.162,70.521L81.764,70.364L82.365,70.208L82.966,70.051L83.567,69.894L84.168,69.737L84.77,69.58L85.371,69.423L85.972,69.266L86.573,69.109L87.174,68.952L87.776,68.795L88.377,68.638L88.978,68.481L89.579,68.323L90.18,68.166L90.782,68.009L91.383,67.851L91.984,67.694L92.585,67.536L93.186,67.379L93.788,67.221L94.389,67.063L94.99,66.905L95.591,66.747L96.192,66.59L96.794,66.432L97.395,66.274L97.996,66.115L98.597,65.957L99.198,65.799L99.8,65.641L100.401,65.482L101.002,65.324L101.603,65.165L102.204,65.007L102.806,64.848L103.407,64.69L104.008,64.531L104.609,64.372L105.21,64.213L105.812,64.054L106.413,63.895L107.014,63.736L107.615,63.577L108.216,63.418L108.818,63.258L109.419,63.099L110.02,62.939L110.621,62.78L111.222,62.62L111.824,62.461L112.425,62.301L113.026,62.141L113.627,61.981L114.228,61.821L114.83,61.661L115.431,61.501L116.032,61.341L116.633,61.18L117.234,61.02L117.836,60.86L118.437,60.699L119.038,60.539L119.639,60.378L120.24,60.217L120.842,60.056L121.443,59.895L122.044,59.734L122.645,59.573L123.246,59.412L123.848,59.251L124.449,59.09L125.05,58.928L125.651,58.767L126.253,58.605L126.854,58.444L127.455,58.282L128.056,58.12L128.657,57.958L129.259,57.796L129.86,57.634L130.461,57.472L131.062,57.31L131.663,57.147L132.265,56.985L132.866,56.823L133.467,56.66L134.068,56.497L134.669,56.335L135.271,56.172L135.872,56.009L136.473,55.846L137.074,55.683L137.675,55.52L138.277,55.356L138.878,55.193L139.479,55.03L140.08,54.866L140.681,54.703L141.283,54.539L141.884,54.375L142.485,54.211L143.086,54.047L143.687,53.883L144.289,53.719L144.89,53.555L145.491,53.391L146.092,53.226L146.693,53.062L147.295,52.897L147.896,52.732L148.497,52.568L149.098,52.403L149.699,52.238L150.301,52.073L150.902,51.908L151.503,51.742L152.104,51.577L152.705,51.412L153.307,51.246L153.908,51.081L154.509,50.915L155.11,50.749L155.711,50.583L156.313,50.418L156.914,50.252L157.515,50.085L158.116,49.919L158.717,49.753L159.319,49.587L159.92,49.42L160.521,49.254L161.122,49.087L161.723,48.92L162.325,48.753L162.926,48.586L163.527,48.419L164.128,48.252L164.729,48.085L165.331,47.918L165.932,47.75L166.533,47.583L167.134,47.415L167.735,47.248L168.337,47.08L168.938,46.912L169.539,46.744L170.14,46.576L170.741,46.408L171.343,46.24L171.944,46.072L172.545,45.904L173.146,45.735L173.747,45.567L174.349,45.398L174.95,45.229L175.551,45.061L176.152,44.892L176.754,44.723L177.355,44.554L177.956,44.385L178.557,44.215L179.158,44.046L179.76,43.877L180.361,43.707L180.962,43.538L181.563,43.368L182.164,43.198L182.766,43.028L183.367,42.858L183.968,42.688L184.569,42.518L185.17,42.348L185.772,42.178L186.373,42.008L186.974,41.837L187.575,41.667L188.176,41.496L188.778,41.325L189.379,41.155L189.98,40.984L190.581,40.813L191.182,40.642L191.784,40.471L192.385,40.3L192.986,40.128L193.587,39.957L194.188,39.786L194.79,39.614L195.391,39.443L195.992,39.271L196.593,39.099L197.194,38.928L197.796,38.756L198.397,38.584L198.998,38.412L199.599,38.24L200.2,38.068L200.802,37.895L201.403,37.723L202.004,37.551L202.605,37.378L203.206,37.205L203.808,37.033L204.409,36.86L205.01,36.687L205.611,36.515L206.212,36.342L206.814,36.169L207.415,35.996L208.016,35.822L208.617,35.649L209.218,35.476L209.82,35.303L210.421,35.129L211.022,34.956L211.623,34.782L212.224,34.609L212.826,34.435L213.427,34.261L214.028,34.087L214.629,33.913L215.23,33.74L215.832,33.566L216.433,33.391L217.034,33.217L217.635,33.043L218.236,32.869L218.838,32.695L219.439,32.52L220.04,32.346L220.641,32.171L221.242,31.997L221.844,31.822L222.445,31.647L223.046,31.473L223.647,31.298L224.248,31.123L224.85,30.948L225.451,30.773L226.052,30.598L226.653,30.423L227.255,30.248L227.856,30.073L228.457,29.898L229.058,29.722L229.659,29.547L230.261,29.372L230.862,29.196L231.463,29.021L232.064,28.845L232.665,28.67L233.267,28.494L233.868,28.318L234.469,28.143L235.07,27.967L235.671,27.791L236.273,27.615L236.874,27.44L237.475,27.264L238.076,27.088L238.677,26.912L239.279,26.736L239.88,26.56L240.481,26.383L241.082,26.207L241.683,26.031L242.285,25.855L242.886,25.679L243.487,25.502L244.088,25.326L244.689,25.15L245.291,24.973L245.892,24.797L246.493,24.621L247.094,24.444L247.695,24.268L248.297,24.091L248.898,23.914L249.499,23.738L250.1,23.561L250.701,23.385L251.303,23.208L251.904,23.031L252.505,22.855L253.106,22.678L253.707,22.501L254.309,22.325L254.91,22.148L255.511,21.971L256.112,21.794L256.713,21.617L257.315,21.441L257.916,21.264L258.517,21.087L259.118,20.91L259.719,20.733L260.321,20.556L260.922,20.379L261.523,20.203L262.124,20.026L262.725,19.849L263.327,19.672L263.928,19.495L264.529,19.318L265.13,19.141L265.731,18.964L266.333,18.787L266.934,18.61L267.535,18.434L268.136,18.257L268.737,18.08L269.339,17.903L269.94,17.726L270.541,17.549L271.142,17.372L271.743,17.195L272.345,17.019L272.946,16.842L273.547,16.665L274.148,16.488L274.749,16.311L275.351,16.135L275.952,15.958L276.553,15.781L277.154,15.604L277.756,15.428L278.357,15.251L278.958,15.074L279.559,14.898L280.16,14.721L280.762,14.545L281.363,14.368L281.964,14.192L282.565,14.015L283.166,13.839L283.768,13.662L284.369,13.486L284.97,13.309L285.571,13.133L286.172,12.957L286.774,12.781L287.375,12.604L287.976,12.428L288.577,12.252L289.178,12.076L289.78,11.9L290.381,11.724L290.982,11.548L291.583,11.372L292.184,11.196L292.786,11.021L293.387,10.845L293.988,10.669L294.589,10.494L295.19,10.318L295.792,10.143L296.393,9.967L296.994,9.792L297.595,9.616L298.196,9.441L298.798,9.266L299.399,9.091L300,8.916" stroke="#ff0000" stroke-width="2"/></g></g><path class="foreground" aria-hidden="true" d="" display="none"/></g><g transform="translate(0,0)"><path class="background" aria-hidden="true" d="M0,0h300v300h-300Z"/><g><g class="mark-line role-mark concat_0_marks" role="graphics-object" aria-roledescription="line mark container"><path aria-label="𝑇 (K): 200; 𝐶ₚ (cal/K/mol): 5.97974408767; key: halved" role="graphics-symbol" aria-roledescription="line mark" d="M0,274.373L0.601,273.959L1.202,273.545L1.804,273.13L2.405,272.715L3.006,272.3L3.607,271.885L4.208,271.469L4.81,271.054L5.411,270.639L6.012,270.224L6.613,269.81L7.214,269.397L7.816,268.984L8.417,268.573L9.018,268.162L9.619,267.753L10.22,267.345L10.822,266.938L11.423,266.533L12.024,266.129L12.625,265.727L13.226,265.327L13.828,264.928L14.429,264.532L15.03,264.138L15.631,263.746L16.232,263.357L16.834,262.969L17.435,262.585L18.036,262.203L18.637,261.823L19.238,261.446L19.84,261.073L20.441,260.702L21.042,260.334L21.643,259.969L22.244,259.607L22.846,259.248L23.447,258.893L24.048,258.541L24.649,258.193L25.251,257.847L25.852,257.506L26.453,257.168L27.054,256.834L27.655,256.503L28.257,256.176L28.858,255.853L29.459,255.534L30.06,255.219L30.661,254.907L31.263,254.6L31.864,254.297L32.465,253.997L33.066,253.702L33.667,253.411L34.269,253.124L34.87,252.842L35.471,252.563L36.072,252.289L36.673,252.019L37.275,251.753L37.876,251.492L38.477,251.235L39.078,250.982L39.679,250.734L40.281,250.49L40.882,250.25L41.483,250.015L42.084,249.784L42.685,249.557L43.287,249.335L43.888,249.118L44.489,248.904L45.09,248.695L45.691,248.49L46.293,248.29L46.894,248.094L47.495,247.902L48.096,247.715L48.697,247.532L49.299,247.353L49.9,247.178L50.501,247.008L51.102,246.842L51.703,246.68L52.305,246.522L52.906,246.368L53.507,246.218L54.108,246.072L54.709,245.93L55.311,245.793L55.912,245.658L56.513,245.528L57.114,245.402L57.715,245.279L58.317,245.16L58.918,245.045L59.519,244.933L60.12,244.825L60.721,244.72L61.323,244.619L61.924,244.52L62.525,244.426L63.126,244.334L63.727,244.245L64.329,244.16L64.93,244.077L65.531,243.997L66.132,243.921L66.733,243.846L67.335,243.775L67.936,243.706L68.537,243.639L69.138,243.575L69.739,243.513L70.341,243.454L70.942,243.396L71.543,243.34L72.144,243.286L72.745,243.234L73.347,243.184L73.948,243.135L74.549,243.088L75.15,243.042L75.752,242.997L76.353,242.954L76.954,242.911L77.555,242.869L78.156,242.828L78.758,242.788L79.359,242.748L79.96,242.709L80.561,242.669L81.162,242.63L81.764,242.591L82.365,242.552L82.966,242.513L83.567,242.474L84.168,242.434L84.77,242.395L85.371,242.356L85.972,242.317L86.573,242.277L87.174,242.238L87.776,242.199L88.377,242.16L88.978,242.12L89.579,242.081L90.18,242.042L90.782,242.002L91.383,241.963L91.984,241.923L92.585,241.884L93.186,241.845L93.788,241.805L94.389,241.766L94.99,241.726L95.591,241.687L96.192,241.647L96.794,241.608L97.395,241.568L97.996,241.529L98.597,241.489L99.198,241.45L99.8,241.41L100.401,241.371L101.002,241.331L101.603,241.291L102.204,241.252L102.806,241.212L103.407,241.172L104.008,241.133L104.609,241.093L105.21,241.053L105.812,241.014L106.413,240.974L107.014,240.934L107.615,240.894L108.216,240.854L108.818,240.815L109.419,240.775L110.02,240.735L110.621,240.695L111.222,240.655L111.824,240.615L112.425,240.575L113.026,240.535L113.627,240.495L114.228,240.455L114.83,240.415L115.431,240.375L116.032,240.335L116.633,240.295L117.234,240.255L117.836,240.215L118.437,240.175L119.038,240.135L119.639,240.094L120.24,240.054L120.842,240.014L121.443,239.974L122.044,239.934L122.645,239.893L123.246,239.853L123.848,239.813L124.449,239.772L125.05,239.732L125.651,239.692L126.253,239.651L126.854,239.611L127.455,239.57L128.056,239.53L128.657,239.49L129.259,239.449L129.86,239.409L130.461,239.368L131.062,239.327L131.663,239.287L132.265,239.246L132.866,239.206L133.467,239.165L134.068,239.124L134.669,239.084L135.271,239.043L135.872,239.002L136.473,238.961L137.074,238.921L137.675,238.88L138.277,238.839L138.878,238.798L139.479,238.757L140.08,238.717L140.681,238.676L141.283,238.635L141.884,238.594L142.485,238.553L143.086,238.512L143.687,238.471L144.289,238.43L144.89,238.389L145.491,238.348L146.092,238.307L146.693,238.265L147.295,238.224L147.896,238.183L148.497,238.142L149.098,238.101L149.699,238.059L150.301,238.018L150.902,237.977L151.503,237.936L152.104,237.894L152.705,237.853L153.307,237.812L153.908,237.77L154.509,237.729L155.11,237.687L155.711,237.646L156.313,237.604L156.914,237.563L157.515,237.521L158.116,237.48L158.717,237.438L159.319,237.397L159.92,237.355L160.521,237.313L161.122,237.272L161.723,237.23L162.325,237.188L162.926,237.147L163.527,237.105L164.128,237.063L164.729,237.021L165.331,236.979L165.932,236.938L166.533,236.896L167.134,236.854L167.735,236.812L168.337,236.77L168.938,236.728L169.539,236.686L170.14,236.644L170.741,236.602L171.343,236.56L171.944,236.518L172.545,236.476L173.146,236.434L173.747,236.392L174.349,236.35L174.95,236.307L175.551,236.265L176.152,236.223L176.754,236.181L177.355,236.138L177.956,236.096L178.557,236.054L179.158,236.011L179.76,235.969L180.361,235.927L180.962,235.884L181.563,235.842L182.164,235.8L182.766,235.757L183.367,235.715L183.968,235.672L184.569,235.63L185.17,235.587L185.772,235.544L186.373,235.502L186.974,235.459L187.575,235.417L188.176,235.374L188.778,235.331L189.379,235.289L189.98,235.246L190.581,235.203L191.182,235.16L191.784,235.118L192.385,235.075L192.986,235.032L193.587,234.989L194.188,234.946L194.79,234.904L195.391,234.861L195.992,234.818L196.593,234.775L197.194,234.732L197.796,234.689L198.397,234.646L198.998,234.603L199.599,234.56L200.2,234.517L200.802,234.474L201.403,234.431L202.004,234.388L202.605,234.345L203.206,234.301L203.808,234.258L204.409,234.215L205.01,234.172L205.611,234.129L206.212,234.085L206.814,234.042L207.415,233.999L208.016,233.956L208.617,233.912L209.218,233.869L209.82,233.826L210.421,233.782L211.022,233.739L211.623,233.696L212.224,233.652L212.826,233.609L213.427,233.565L214.028,233.522L214.629,233.478L215.23,233.435L215.832,233.391L216.433,233.348L217.034,233.304L217.635,233.261L218.236,233.217L218.838,233.174L219.439,233.13L220.04,233.086L220.641,233.043L221.242,232.999L221.844,232.956L222.445,232.912L223.046,232.868L223.647,232.824L224.248,232.781L224.85,232.737L225.451,232.693L226.052,232.65L226.653,232.606L227.255,232.562L227.856,232.518L228.457,232.474L229.058,232.431L229.659,232.387L230.261,232.343L230.862,232.299L231.463,232.255L232.064,232.211L232.665,232.167L233.267,232.124L233.868,232.08L234.469,232.036L235.07,231.992L235.671,231.948L236.273,231.904L236.874,231.86L237.475,231.816L238.076,231.772L238.677,231.728L239.279,231.684L239.88,231.64L240.481,231.596L241.082,231.552L241.683,231.508L242.285,231.464L242.886,231.42L243.487,231.376L244.088,231.332L244.689,231.287L245.291,231.243L245.892,231.199L246.493,231.155L247.094,231.111L247.695,231.067L248.297,231.023L248.898,230.979L249.499,230.934L250.1,230.89L250.701,230.846L251.303,230.802L251.904,230.758L252.505,230.714L253.106,230.67L253.707,230.625L254.309,230.581L254.91,230.537L255.511,230.493L256.112,230.449L256.713,230.404L257.315,230.36L257.916,230.316L258.517,230.272L259.118,230.228L259.719,230.183L260.321,230.139L260.922,230.095L261.523,230.051L262.124,230.006L262.725,229.962L263.327,229.918L263.928,229.874L264.529,229.83L265.13,229.785L265.731,229.741L266.333,229.697L266.934,229.653L267.535,229.608L268.136,229.564L268.737,229.52L269.339,229.476L269.94,229.431L270.541,229.387L271.142,229.343L271.743,229.299L272.345,229.255L272.946,229.21L273.547,229.166L274.148,229.122L274.749,229.078L275.351,229.034L275.952,228.989L276.553,228.945L277.154,228.901L277.756,228.857L278.357,228.813L278.958,228.769L279.559,228.724L280.16,228.68L280.762,228.636L281.363,228.592L281.964,228.548L282.565,228.504L283.166,228.46L283.768,228.416L284.369,228.371L284.97,228.327L285.571,228.283L286.172,228.239L286.774,228.195L287.375,228.151L287.976,228.107L288.577,228.063L289.178,228.019L289.78,227.975L290.381,227.931L290.982,227.887L291.583,227.843L292.184,227.799L292.786,227.755L293.387,227.711L293.988,227.667L294.589,227.623L295.19,227.58L295.792,227.536L296.393,227.492L296.994,227.448L297.595,227.404L298.196,227.36L298.798,227.316L299.399,227.273L300,227.229" stroke="#1ab73a" stroke-width="2"/></g></g><path class="foreground" aria-hidden="true" d="" display="none"/></g></g></g><path class="foreground" aria-hidden="true" d="" display="none"/></g></g><g class="mark-group role-scope concat_1_group" role="graphics-object" aria-roledescription="group mark container"><g transform="translate(0,354)"><path class="background" aria-hidden="true" d="M0.5,0.5h300v300h-300Z" stroke="#ddd"/><g><g class="mark-group role-axis" aria-hidden="true"><g transform="translate(0.5,300.5)"><path class="background" aria-hidden="true" d="M0,0h0v0h0Z" pointer-events="none"/><g><g class="mark-rule role-axis-grid" pointer-events="none"><line transform="translate(32,-300)" x2="0" y2="300" stroke="#ddd" stroke-width="1" opacity="1"/><line transform="translate(86,-300)" x2="0" y2="300" stroke="#ddd" stroke-width="1" opacity="1"/><line transform="translate(139,-300)" x2="0" y2="300" stroke="#ddd" stroke-width="1" opacity="1"/><line transform="translate(193,-300)" x2="0" y2="300" stroke="#ddd" stroke-width="1" opacity="1"/><line transform="translate(246,-300)" x2="0" y2="300" stroke="#ddd" stroke-width="1" opacity="1"/><line transform="translate(300,-300)" x2="0" y2="300" stroke="#ddd" stroke-width="1" opacity="1"/></g></g><path class="foreground" aria-hidden="true" d="" pointer-events="none" display="none"/></g></g><g class="mark-group role-axis" aria-hidden="true"><g transform="translate(0.5,0.5)"><path class="background" aria-hidden="true" d="M0,0h0v0h0Z" pointer-events="none"/><g><g class="mark-rule role-axis-grid" pointer-events="none"><line transform="translate(0,300)" x2="300" y2="0" stroke="#ddd" stroke-width="1" opacity="1"/><line transform="translate(0,242)" x2="300" y2="0" stroke="#ddd" stroke-width="1" opacity="1"/><line transform="translate(0,185)" x2="300" y2="0" stroke="#ddd" stroke-width="1" opacity="1"/><line transform="translate(0,127)" x2="300" y2="0" stroke="#ddd" stroke-width="1" opacity="1"/><line transform="translate(0,69)" x2="300" y2="0" stroke="#ddd" stroke-width="1" opacity="1"/><line transform="translate(0,12)" x2="300" y2="0" stroke="#ddd" stroke-width="1" opacity="1"/></g></g><path class="foreground" aria-hidden="true" d="" pointer-events="none" display="none"/></g></g><g class="mark-group role-axis" role="graphics-symbol" aria-roledescription="axis" aria-label="X-axis titled '𝑇 (K)' for a linear scale with values from 200 to 3,000"><g transform="translate(0.5,300.5)"><path class="background" aria-hidden="true" d="M0,0h0v0h0Z" pointer-events="none"/><g><g class="mark-rule role-axis-tick" pointer-events="none"><line transform="translate(32,0)" x2="0" y2="5" stroke="#888" stroke-width="1" opacity="1"/><line transform="translate(86,0)" x2="0" y2="5" stroke="#888" stroke-width="1" opacity="1"/><line transform="translate(139,0)" x2="0" y2="5" stroke="#888" stroke-width="1" opacity="1"/><line transform="translate(193,0)" x2="0" y2="5" stroke="#888" stroke-width="1" opacity="1"/><line transform="translate(246,0)" x2="0" y2="5" stroke="#888" stroke-width="1" opacity="1"/><line transform="translate(300,0)" x2="0" y2="5" stroke="#888" stroke-width="1" opacity="1"/></g><g class="mark-text role-axis-label" pointer-events="none"><text text-anchor="middle" transform="translate(32.14285714285714,15)" font-family="sans-serif" font-size="10px" fill="#000" opacity="1">500</text><text text-anchor="middle" transform="translate(85.71428571428571,15)" font-family="sans-serif" font-size="10px" fill="#000" opacity="1">1,000</text><text text-anchor="middle" transform="translate(139.28571428571428,15)" font-family="sans-serif" font-size="10px" fill="#000" opacity="1">1,500</text><text text-anchor="middle" transform="translate(192.85714285714286,15)" font-family="sans-serif" font-size="10px" fill="#000" opacity="1">2,000</text><text text-anchor="middle" transform="translate(246.42857142857142,15)" font-family="sans-serif" font-size="10px" fill="#000" opacity="1">2,500</text><text text-anchor="end" transform="translate(300,15)" font-family="sans-serif" font-size="10px" fill="#000" opacity="1">3,000</text></g><g class="mark-rule role-axis-domain" pointer-events="none"><line transform="translate(0,0)" x2="300" y2="0" stroke="#888" stroke-width="1" opacity="1"/></g><g class="mark-text role-axis-title" pointer-events="none"><text text-anchor="middle" transform="translate(150,30)" font-family="sans-serif" font-size="11px" font-weight="bold" fill="#000" opacity="1">𝑇 (K)</text></g></g><path class="foreground" aria-hidden="true" d="" pointer-events="none" display="none"/></g></g><g class="mark-group role-axis" role="graphics-symbol" aria-roledescription="axis" aria-label="Y-axis titled '𝑆 (cal/K/mol)' for a linear scale with values from 0 to 260"><g transform="translate(0.5,0.5)"><path class="background" aria-hidden="true" d="M0,0h0v0h0Z" pointer-events="none"/><g><g class="mark-rule role-axis-tick" pointer-events="none"><line transform="translate(0,300)" x2="-5" y2="0" stroke="#888" stroke-width="1" opacity="1"/><line transform="translate(0,242)" x2="-5" y2="0" stroke="#888" stroke-width="1" opacity="1"/><line transform="translate(0,185)" x2="-5" y2="0" stroke="#888" stroke-width="1" opacity="1"/><line transform="translate(0,127)" x2="-5" y2="0" stroke="#888" stroke-width="1" opacity="1"/><line transform="translate(0,69)" x2="-5" y2="0" stroke="#888" stroke-width="1" opacity="1"/><line transform="translate(0,12)" x2="-5" y2="0" stroke="#888" stroke-width="1" opacity="1"/></g><g class="mark-text role-axis-label" pointer-events="none"><text text-anchor="end" transform="translate(-7,303)" font-family="sans-serif" font-size="10px" fill="#000" opacity="1">0</text><text text-anchor="end" transform="translate(-7,245.30769230769232)" font-family="sans-serif" font-size="10px" fill="#000" opacity="1">50</text><text text-anchor="end" transform="translate(-7,187.6153846153846)" font-family="sans-serif" font-size="10px" fill="#000" opacity="1">100</text><text text-anchor="end" transform="translate(-7,129.92307692307693)" font-family="sans-serif" font-size="10px" fill="#000" opacity="1">150</text><text text-anchor="end" transform="translate(-7,72.23076923076921)" font-family="sans-serif" font-size="10px" fill="#000" opacity="1">200</text><text text-anchor="end" transform="translate(-7,14.538461538461531)" font-family="sans-serif" font-size="10px" fill="#000" opacity="1">250</text></g><g class="mark-rule role-axis-domain" pointer-events="none"><line transform="translate(0,300)" x2="0" y2="-300" stroke="#888" stroke-width="1" opacity="1"/></g><g class="mark-text role-axis-title" pointer-events="none"><text text-anchor="middle" transform="translate(-27.6845703125,150) rotate(-90) translate(0,-2)" font-family="sans-serif" font-size="11px" font-weight="bold" fill="#000" opacity="1">𝑆 (cal/K/mol)</text></g></g><path class="foreground" aria-hidden="true" d="" pointer-events="none" display="none"/></g></g><g class="mark-group role-scope concat_1_pathgroup" role="graphics-object" aria-roledescription="group mark container"><g transform="translate(0,0)"><path class="background" aria-hidden="true" d="M0,0h300v300h-300Z"/><g><g class="mark-line role-mark concat_1_marks" role="graphics-object" aria-roledescription="line mark container"><path aria-label="𝑇 (K): 200; 𝑆 (cal/K/mol): 58.5449329822; key: original" role="graphics-symbol" aria-roledescription="line mark" d="M0,232.448L0.601,232.063L1.202,231.683L1.804,231.306L2.405,230.934L3.006,230.565L3.607,230.2L4.208,229.838L4.81,229.479L5.411,229.124L6.012,228.771L6.613,228.421L7.214,228.074L7.816,227.729L8.417,227.387L9.018,227.047L9.619,226.71L10.22,226.375L10.822,226.042L11.423,225.711L12.024,225.382L12.625,225.056L13.226,224.731L13.828,224.408L14.429,224.087L15.03,223.767L15.631,223.45L16.232,223.134L16.834,222.82L17.435,222.507L18.036,222.197L18.637,221.887L19.238,221.58L19.84,221.273L20.441,220.969L21.042,220.666L21.643,220.364L22.244,220.064L22.846,219.765L23.447,219.468L24.048,219.172L24.649,218.878L25.251,218.585L25.852,218.293L26.453,218.003L27.054,217.714L27.655,217.426L28.257,217.14L28.858,216.855L29.459,216.572L30.06,216.29L30.661,216.009L31.263,215.729L31.864,215.451L32.465,215.174L33.066,214.898L33.667,214.624L34.269,214.351L34.87,214.079L35.471,213.808L36.072,213.539L36.673,213.271L37.275,213.004L37.876,212.739L38.477,212.475L39.078,212.212L39.679,211.95L40.281,211.69L40.882,211.431L41.483,211.173L42.084,210.917L42.685,210.661L43.287,210.407L43.888,210.154L44.489,209.903L45.09,209.652L45.691,209.403L46.293,209.156L46.894,208.909L47.495,208.664L48.096,208.42L48.697,208.177L49.299,207.935L49.9,207.695L50.501,207.456L51.102,207.218L51.703,206.981L52.305,206.746L52.906,206.512L53.507,206.279L54.108,206.047L54.709,205.816L55.311,205.587L55.912,205.359L56.513,205.132L57.114,204.907L57.715,204.682L58.317,204.459L58.918,204.237L59.519,204.016L60.12,203.796L60.721,203.578L61.323,203.361L61.924,203.145L62.525,202.93L63.126,202.716L63.727,202.504L64.329,202.292L64.93,202.082L65.531,201.873L66.132,201.665L66.733,201.458L67.335,201.253L67.936,201.048L68.537,200.845L69.138,200.643L69.739,200.441L70.341,200.241L70.942,200.043L71.543,199.845L72.144,199.648L72.745,199.452L73.347,199.258L73.948,199.064L74.549,198.872L75.15,198.68L75.752,198.49L76.353,198.3L76.954,198.112L77.555,197.925L78.156,197.738L78.758,197.553L79.359,197.369L79.96,197.185L80.561,197.003L81.162,196.821L81.764,196.641L82.365,196.461L82.966,196.282L83.567,196.105L84.168,195.928L84.77,195.752L85.371,195.576L85.972,195.402L86.573,195.229L87.174,195.056L87.776,194.884L88.377,194.713L88.978,194.543L89.579,194.374L90.18,194.205L90.782,194.038L91.383,193.871L91.984,193.705L92.585,193.539L93.186,193.375L93.788,193.211L94.389,193.048L94.99,192.885L95.591,192.724L96.192,192.563L96.794,192.402L97.395,192.243L97.996,192.084L98.597,191.926L99.198,191.768L99.8,191.612L100.401,191.455L101.002,191.3L101.603,191.145L102.204,190.991L102.806,190.837L103.407,190.685L104.008,190.532L104.609,190.381L105.21,190.23L105.812,190.079L106.413,189.93L107.014,189.78L107.615,189.632L108.216,189.484L108.818,189.337L109.419,189.19L110.02,189.043L110.621,188.898L111.222,188.753L111.824,188.608L112.425,188.464L113.026,188.321L113.627,188.178L114.228,188.035L114.83,187.894L115.431,187.752L116.032,187.612L116.633,187.471L117.234,187.332L117.836,187.192L118.437,187.054L119.038,186.915L119.639,186.778L120.24,186.64L120.842,186.504L121.443,186.367L122.044,186.232L122.645,186.096L123.246,185.962L123.848,185.827L124.449,185.693L125.05,185.56L125.651,185.427L126.253,185.294L126.854,185.162L127.455,185.031L128.056,184.9L128.657,184.769L129.259,184.639L129.86,184.509L130.461,184.379L131.062,184.25L131.663,184.122L132.265,183.993L132.866,183.866L133.467,183.738L134.068,183.611L134.669,183.485L135.271,183.359L135.872,183.233L136.473,183.108L137.074,182.983L137.675,182.858L138.277,182.734L138.878,182.61L139.479,182.487L140.08,182.364L140.681,182.241L141.283,182.119L141.884,181.997L142.485,181.875L143.086,181.754L143.687,181.633L144.289,181.513L144.89,181.393L145.491,181.273L146.092,181.154L146.693,181.035L147.295,180.916L147.896,180.798L148.497,180.68L149.098,180.562L149.699,180.445L150.301,180.328L150.902,180.211L151.503,180.095L152.104,179.979L152.705,179.863L153.307,179.747L153.908,179.632L154.509,179.518L155.11,179.403L155.711,179.289L156.313,179.175L156.914,179.062L157.515,178.949L158.116,178.836L158.717,178.723L159.319,178.611L159.92,178.499L160.521,178.387L161.122,178.276L161.723,178.165L162.325,178.054L162.926,177.944L163.527,177.833L164.128,177.723L164.729,177.614L165.331,177.504L165.932,177.395L166.533,177.286L167.134,177.178L167.735,177.07L168.337,176.962L168.938,176.854L169.539,176.746L170.14,176.639L170.741,176.532L171.343,176.426L171.944,176.319L172.545,176.213L173.146,176.107L173.747,176.002L174.349,175.896L174.95,175.791L175.551,175.686L176.152,175.582L176.754,175.477L177.355,175.373L177.956,175.269L178.557,175.166L179.158,175.062L179.76,174.959L180.361,174.856L180.962,174.753L181.563,174.651L182.164,174.549L182.766,174.447L183.367,174.345L183.968,174.244L184.569,174.142L185.17,174.041L185.772,173.94L186.373,173.84L186.974,173.739L187.575,173.639L188.176,173.539L188.778,173.44L189.379,173.34L189.98,173.241L190.581,173.142L191.182,173.043L191.784,172.944L192.385,172.846L192.986,172.748L193.587,172.65L194.188,172.552L194.79,172.455L195.391,172.357L195.992,172.26L196.593,172.163L197.194,172.066L197.796,171.97L198.397,171.873L198.998,171.777L199.599,171.681L200.2,171.586L200.802,171.49L201.403,171.395L202.004,171.3L202.605,171.205L203.206,171.11L203.808,171.015L204.409,170.921L205.01,170.827L205.611,170.733L206.212,170.639L206.814,170.545L207.415,170.452L208.016,170.358L208.617,170.265L209.218,170.172L209.82,170.08L210.421,169.987L211.022,169.895L211.623,169.803L212.224,169.711L212.826,169.619L213.427,169.527L214.028,169.436L214.629,169.344L215.23,169.253L215.832,169.162L216.433,169.071L217.034,168.981L217.635,168.89L218.236,168.8L218.838,168.71L219.439,168.62L220.04,168.53L220.641,168.44L221.242,168.351L221.844,168.262L222.445,168.173L223.046,168.084L223.647,167.995L224.248,167.906L224.85,167.818L225.451,167.729L226.052,167.641L226.653,167.553L227.255,167.465L227.856,167.378L228.457,167.29L229.058,167.203L229.659,167.115L230.261,167.028L230.862,166.941L231.463,166.855L232.064,166.768L232.665,166.681L233.267,166.595L233.868,166.509L234.469,166.423L235.07,166.337L235.671,166.251L236.273,166.165L236.874,166.08L237.475,165.995L238.076,165.91L238.677,165.824L239.279,165.74L239.88,165.655L240.481,165.57L241.082,165.486L241.683,165.401L242.285,165.317L242.886,165.233L243.487,165.149L244.088,165.065L244.689,164.982L245.291,164.898L245.892,164.815L246.493,164.732L247.094,164.648L247.695,164.565L248.297,164.483L248.898,164.4L249.499,164.317L250.1,164.235L250.701,164.153L251.303,164.07L251.904,163.988L252.505,163.906L253.106,163.824L253.707,163.743L254.309,163.661L254.91,163.58L255.511,163.498L256.112,163.417L256.713,163.336L257.315,163.255L257.916,163.174L258.517,163.094L259.118,163.013L259.719,162.933L260.321,162.852L260.922,162.772L261.523,162.692L262.124,162.612L262.725,162.532L263.327,162.453L263.928,162.373L264.529,162.293L265.13,162.214L265.731,162.135L266.333,162.056L266.934,161.977L267.535,161.898L268.136,161.819L268.737,161.74L269.339,161.662L269.94,161.583L270.541,161.505L271.142,161.427L271.743,161.349L272.345,161.27L272.946,161.193L273.547,161.115L274.148,161.037L274.749,160.96L275.351,160.882L275.952,160.805L276.553,160.727L277.154,160.65L277.756,160.573L278.357,160.496L278.958,160.42L279.559,160.343L280.16,160.266L280.762,160.19L281.363,160.113L281.964,160.037L282.565,159.961L283.166,159.885L283.768,159.809L284.369,159.733L284.97,159.657L285.571,159.581L286.172,159.506L286.774,159.43L287.375,159.355L287.976,159.28L288.577,159.205L289.178,159.13L289.78,159.055L290.381,158.98L290.982,158.905L291.583,158.83L292.184,158.756L292.786,158.681L293.387,158.607L293.988,158.533L294.589,158.458L295.19,158.384L295.792,158.31L296.393,158.236L296.994,158.163L297.595,158.089L298.196,158.015L298.798,157.942L299.399,157.868L300,157.795" stroke="#0066ff" stroke-width="2"/></g></g><path class="foreground" aria-hidden="true" d="" display="none"/></g><g transform="translate(0,0)"><path class="background" aria-hidden="true" d="M0,0h300v300h-300Z"/><g><g class="mark-line role-mark concat_1_marks" role="graphics-object" aria-roledescription="line mark container"><path aria-label="𝑇 (K): 200; 𝑆 (cal/K/mol): 117.089865964; key: doubled" role="graphics-symbol" aria-roledescription="line mark" d="M0,164.896L0.601,164.127L1.202,163.365L1.804,162.613L2.405,161.868L3.006,161.13L3.607,160.4L4.208,159.676L4.81,158.958L5.411,158.247L6.012,157.542L6.613,156.842L7.214,156.148L7.816,155.458L8.417,154.774L9.018,154.095L9.619,153.42L10.22,152.75L10.822,152.084L11.423,151.422L12.024,150.765L12.625,150.111L13.226,149.462L13.828,148.816L14.429,148.173L15.03,147.535L15.631,146.9L16.232,146.268L16.834,145.64L17.435,145.015L18.036,144.393L18.637,143.775L19.238,143.159L19.84,142.547L20.441,141.938L21.042,141.332L21.643,140.728L22.244,140.128L22.846,139.531L23.447,138.936L24.048,138.345L24.649,137.756L25.251,137.17L25.852,136.586L26.453,136.006L27.054,135.428L27.655,134.853L28.257,134.28L28.858,133.711L29.459,133.144L30.06,132.579L30.661,132.017L31.263,131.458L31.864,130.902L32.465,130.348L33.066,129.796L33.667,129.248L34.269,128.701L34.87,128.158L35.471,127.617L36.072,127.078L36.673,126.542L37.275,126.009L37.876,125.478L38.477,124.95L39.078,124.424L39.679,123.901L40.281,123.38L40.882,122.862L41.483,122.346L42.084,121.833L42.685,121.322L43.287,120.814L43.888,120.309L44.489,119.806L45.09,119.305L45.691,118.807L46.293,118.311L46.894,117.818L47.495,117.327L48.096,116.839L48.697,116.354L49.299,115.87L49.9,115.39L50.501,114.911L51.102,114.436L51.703,113.962L52.305,113.492L52.906,113.023L53.507,112.557L54.108,112.094L54.709,111.633L55.311,111.174L55.912,110.718L56.513,110.264L57.114,109.813L57.715,109.364L58.317,108.918L58.918,108.474L59.519,108.032L60.12,107.593L60.721,107.156L61.323,106.722L61.924,106.289L62.525,105.86L63.126,105.432L63.727,105.007L64.329,104.584L64.93,104.164L65.531,103.746L66.132,103.33L66.733,102.917L67.335,102.505L67.936,102.096L68.537,101.69L69.138,101.285L69.739,100.883L70.341,100.483L70.942,100.085L71.543,99.689L72.144,99.296L72.745,98.905L73.347,98.515L73.948,98.128L74.549,97.743L75.15,97.36L75.752,96.98L76.353,96.601L76.954,96.224L77.555,95.849L78.156,95.477L78.758,95.106L79.359,94.737L79.96,94.37L80.561,94.006L81.162,93.643L81.764,93.281L82.365,92.922L82.966,92.565L83.567,92.209L84.168,91.855L84.77,91.503L85.371,91.153L85.972,90.804L86.573,90.457L87.174,90.112L87.776,89.769L88.377,89.427L88.978,89.087L89.579,88.748L90.18,88.411L90.782,88.076L91.383,87.742L91.984,87.409L92.585,87.079L93.186,86.749L93.788,86.422L94.389,86.095L94.99,85.77L95.591,85.447L96.192,85.125L96.794,84.805L97.395,84.486L97.996,84.168L98.597,83.852L99.198,83.537L99.8,83.223L100.401,82.911L101.002,82.6L101.603,82.29L102.204,81.982L102.806,81.675L103.407,81.369L104.008,81.065L104.609,80.762L105.21,80.46L105.812,80.159L106.413,79.859L107.014,79.561L107.615,79.264L108.216,78.968L108.818,78.673L109.419,78.379L110.02,78.087L110.621,77.796L111.222,77.505L111.824,77.216L112.425,76.928L113.026,76.641L113.627,76.356L114.228,76.071L114.83,75.787L115.431,75.505L116.032,75.223L116.633,74.943L117.234,74.663L117.836,74.385L118.437,74.107L119.038,73.831L119.639,73.555L120.24,73.281L120.842,73.007L121.443,72.735L122.044,72.463L122.645,72.193L123.246,71.923L123.848,71.654L124.449,71.387L125.05,71.12L125.651,70.854L126.253,70.589L126.854,70.325L127.455,70.061L128.056,69.799L128.657,69.538L129.259,69.277L129.86,69.017L130.461,68.758L131.062,68.5L131.663,68.243L132.265,67.987L132.866,67.731L133.467,67.477L134.068,67.223L134.669,66.97L135.271,66.717L135.872,66.466L136.473,66.215L137.074,65.965L137.675,65.716L138.277,65.468L138.878,65.22L139.479,64.974L140.08,64.728L140.681,64.482L141.283,64.238L141.884,63.994L142.485,63.751L143.086,63.508L143.687,63.267L144.289,63.026L144.89,62.786L145.491,62.546L146.092,62.307L146.693,62.069L147.295,61.832L147.896,61.595L148.497,61.359L149.098,61.124L149.699,60.889L150.301,60.655L150.902,60.422L151.503,60.189L152.104,59.957L152.705,59.726L153.307,59.495L153.908,59.265L154.509,59.035L155.11,58.807L155.711,58.578L156.313,58.351L156.914,58.124L157.515,57.897L158.116,57.672L158.717,57.447L159.319,57.222L159.92,56.998L160.521,56.775L161.122,56.552L161.723,56.33L162.325,56.108L162.926,55.887L163.527,55.667L164.128,55.447L164.729,55.227L165.331,55.009L165.932,54.79L166.533,54.573L167.134,54.356L167.735,54.139L168.337,53.923L168.938,53.708L169.539,53.493L170.14,53.278L170.741,53.065L171.343,52.851L171.944,52.638L172.545,52.426L173.146,52.214L173.747,52.003L174.349,51.792L174.95,51.582L175.551,51.372L176.152,51.163L176.754,50.954L177.355,50.746L177.956,50.538L178.557,50.331L179.158,50.124L179.76,49.918L180.361,49.712L180.962,49.507L181.563,49.302L182.164,49.098L182.766,48.894L183.367,48.69L183.968,48.487L184.569,48.285L185.17,48.083L185.772,47.881L186.373,47.68L186.974,47.479L187.575,47.279L188.176,47.079L188.778,46.879L189.379,46.68L189.98,46.482L190.581,46.284L191.182,46.086L191.784,45.889L192.385,45.692L192.986,45.496L193.587,45.3L194.188,45.104L194.79,44.909L195.391,44.714L195.992,44.52L196.593,44.326L197.194,44.133L197.796,43.94L198.397,43.747L198.998,43.555L199.599,43.363L200.2,43.171L200.802,42.98L201.403,42.789L202.004,42.599L202.605,42.409L203.206,42.22L203.808,42.03L204.409,41.842L205.01,41.653L205.611,41.465L206.212,41.278L206.814,41.09L207.415,40.903L208.016,40.717L208.617,40.531L209.218,40.345L209.82,40.159L210.421,39.974L211.022,39.79L211.623,39.605L212.224,39.421L212.826,39.237L213.427,39.054L214.028,38.871L214.629,38.689L215.23,38.506L215.832,38.324L216.433,38.143L217.034,37.961L217.635,37.781L218.236,37.6L218.838,37.42L219.439,37.24L220.04,37.06L220.641,36.881L221.242,36.702L221.844,36.523L222.445,36.345L223.046,36.167L223.647,35.99L224.248,35.812L224.85,35.635L225.451,35.459L226.052,35.282L226.653,35.106L227.255,34.931L227.856,34.755L228.457,34.58L229.058,34.405L229.659,34.231L230.261,34.056L230.862,33.883L231.463,33.709L232.064,33.536L232.665,33.363L233.267,33.19L233.868,33.018L234.469,32.846L235.07,32.674L235.671,32.502L236.273,32.331L236.874,32.16L237.475,31.989L238.076,31.819L238.677,31.649L239.279,31.479L239.88,31.31L240.481,31.14L241.082,30.971L241.683,30.803L242.285,30.634L242.886,30.466L243.487,30.298L244.088,30.131L244.689,29.963L245.291,29.796L245.892,29.63L246.493,29.463L247.094,29.297L247.695,29.131L248.297,28.965L248.898,28.8L249.499,28.635L250.1,28.47L250.701,28.305L251.303,28.141L251.904,27.976L252.505,27.813L253.106,27.649L253.707,27.486L254.309,27.322L254.91,27.16L255.511,26.997L256.112,26.835L256.713,26.672L257.315,26.511L257.916,26.349L258.517,26.188L259.118,26.026L259.719,25.866L260.321,25.705L260.922,25.544L261.523,25.384L262.124,25.224L262.725,25.065L263.327,24.905L263.928,24.746L264.529,24.587L265.13,24.428L265.731,24.27L266.333,24.111L266.934,23.953L267.535,23.795L268.136,23.638L268.737,23.48L269.339,23.323L269.94,23.166L270.541,23.01L271.142,22.853L271.743,22.697L272.345,22.541L272.946,22.385L273.547,22.23L274.148,22.074L274.749,21.919L275.351,21.764L275.952,21.609L276.553,21.455L277.154,21.301L277.756,21.147L278.357,20.993L278.958,20.839L279.559,20.686L280.16,20.532L280.762,20.379L281.363,20.227L281.964,20.074L282.565,19.922L283.166,19.77L283.768,19.618L284.369,19.466L284.97,19.314L285.571,19.163L286.172,19.012L286.774,18.861L287.375,18.71L287.976,18.56L288.577,18.409L289.178,18.259L289.78,18.109L290.381,17.959L290.982,17.81L291.583,17.66L292.184,17.511L292.786,17.362L293.387,17.214L293.988,17.065L294.589,16.917L295.19,16.768L295.792,16.62L296.393,16.473L296.994,16.325L297.595,16.178L298.196,16.03L298.798,15.883L299.399,15.736L300,15.59" stroke="#ff0000" stroke-width="2"/></g></g><path class="foreground" aria-hidden="true" d="" display="none"/></g><g transform="translate(0,0)"><path class="background" aria-hidden="true" d="M0,0h300v300h-300Z"/><g><g class="mark-line role-mark concat_1_marks" role="graphics-object" aria-roledescription="line mark container"><path aria-label="𝑇 (K): 200; 𝑆 (cal/K/mol): 29.2724664911; key: halved" role="graphics-symbol" aria-roledescription="line mark" d="M0,266.224L0.601,266.032L1.202,265.841L1.804,265.653L2.405,265.467L3.006,265.283L3.607,265.1L4.208,264.919L4.81,264.74L5.411,264.562L6.012,264.385L6.613,264.211L7.214,264.037L7.816,263.865L8.417,263.694L9.018,263.524L9.619,263.355L10.22,263.187L10.822,263.021L11.423,262.856L12.024,262.691L12.625,262.528L13.226,262.365L13.828,262.204L14.429,262.043L15.03,261.884L15.631,261.725L16.232,261.567L16.834,261.41L17.435,261.254L18.036,261.098L18.637,260.944L19.238,260.79L19.84,260.637L20.441,260.484L21.042,260.333L21.643,260.182L22.244,260.032L22.846,259.883L23.447,259.734L24.048,259.586L24.649,259.439L25.251,259.292L25.852,259.147L26.453,259.001L27.054,258.857L27.655,258.713L28.257,258.57L28.858,258.428L29.459,258.286L30.06,258.145L30.661,258.004L31.263,257.865L31.864,257.725L32.465,257.587L33.066,257.449L33.667,257.312L34.269,257.175L34.87,257.039L35.471,256.904L36.072,256.77L36.673,256.636L37.275,256.502L37.876,256.37L38.477,256.237L39.078,256.106L39.679,255.975L40.281,255.845L40.882,255.715L41.483,255.587L42.084,255.458L42.685,255.331L43.287,255.204L43.888,255.077L44.489,254.951L45.09,254.826L45.691,254.702L46.293,254.578L46.894,254.455L47.495,254.332L48.096,254.21L48.697,254.088L49.299,253.968L49.9,253.847L50.501,253.728L51.102,253.609L51.703,253.491L52.305,253.373L52.906,253.256L53.507,253.139L54.108,253.023L54.709,252.908L55.311,252.794L55.912,252.68L56.513,252.566L57.114,252.453L57.715,252.341L58.317,252.229L58.918,252.118L59.519,252.008L60.12,251.898L60.721,251.789L61.323,251.68L61.924,251.572L62.525,251.465L63.126,251.358L63.727,251.252L64.329,251.146L64.93,251.041L65.531,250.936L66.132,250.833L66.733,250.729L67.335,250.626L67.936,250.524L68.537,250.422L69.138,250.321L69.739,250.221L70.341,250.121L70.942,250.021L71.543,249.922L72.144,249.824L72.745,249.726L73.347,249.629L73.948,249.532L74.549,249.436L75.15,249.34L75.752,249.245L76.353,249.15L76.954,249.056L77.555,248.962L78.156,248.869L78.758,248.777L79.359,248.684L79.96,248.593L80.561,248.501L81.162,248.411L81.764,248.32L82.365,248.231L82.966,248.141L83.567,248.052L84.168,247.964L84.77,247.876L85.371,247.788L85.972,247.701L86.573,247.614L87.174,247.528L87.776,247.442L88.377,247.357L88.978,247.272L89.579,247.187L90.18,247.103L90.782,247.019L91.383,246.935L91.984,246.852L92.585,246.77L93.186,246.687L93.788,246.605L94.389,246.524L94.99,246.443L95.591,246.362L96.192,246.281L96.794,246.201L97.395,246.121L97.996,246.042L98.597,245.963L99.198,245.884L99.8,245.806L100.401,245.728L101.002,245.65L101.603,245.573L102.204,245.495L102.806,245.419L103.407,245.342L104.008,245.266L104.609,245.19L105.21,245.115L105.812,245.04L106.413,244.965L107.014,244.89L107.615,244.816L108.216,244.742L108.818,244.668L109.419,244.595L110.02,244.522L110.621,244.449L111.222,244.376L111.824,244.304L112.425,244.232L113.026,244.16L113.627,244.089L114.228,244.018L114.83,243.947L115.431,243.876L116.032,243.806L116.633,243.736L117.234,243.666L117.836,243.596L118.437,243.527L119.038,243.458L119.639,243.389L120.24,243.32L120.842,243.252L121.443,243.184L122.044,243.116L122.645,243.048L123.246,242.981L123.848,242.914L124.449,242.847L125.05,242.78L125.651,242.713L126.253,242.647L126.854,242.581L127.455,242.515L128.056,242.45L128.657,242.384L129.259,242.319L129.86,242.254L130.461,242.19L131.062,242.125L131.663,242.061L132.265,241.997L132.866,241.933L133.467,241.869L134.068,241.806L134.669,241.742L135.271,241.679L135.872,241.616L136.473,241.554L137.074,241.491L137.675,241.429L138.277,241.367L138.878,241.305L139.479,241.243L140.08,241.182L140.681,241.121L141.283,241.059L141.884,240.998L142.485,240.938L143.086,240.877L143.687,240.817L144.289,240.756L144.89,240.696L145.491,240.637L146.092,240.577L146.693,240.517L147.295,240.458L147.896,240.399L148.497,240.34L149.098,240.281L149.699,240.222L150.301,240.164L150.902,240.105L151.503,240.047L152.104,239.989L152.705,239.931L153.307,239.874L153.908,239.816L154.509,239.759L155.11,239.702L155.711,239.645L156.313,239.588L156.914,239.531L157.515,239.474L158.116,239.418L158.717,239.362L159.319,239.305L159.92,239.25L160.521,239.194L161.122,239.138L161.723,239.082L162.325,239.027L162.926,238.972L163.527,238.917L164.128,238.862L164.729,238.807L165.331,238.752L165.932,238.698L166.533,238.643L167.134,238.589L167.735,238.535L168.337,238.481L168.938,238.427L169.539,238.373L170.14,238.32L170.741,238.266L171.343,238.213L171.944,238.16L172.545,238.107L173.146,238.054L173.747,238.001L174.349,237.948L174.95,237.896L175.551,237.843L176.152,237.791L176.754,237.739L177.355,237.687L177.956,237.635L178.557,237.583L179.158,237.531L179.76,237.479L180.361,237.428L180.962,237.377L181.563,237.325L182.164,237.274L182.766,237.223L183.367,237.173L183.968,237.122L184.569,237.071L185.17,237.021L185.772,236.97L186.373,236.92L186.974,236.87L187.575,236.82L188.176,236.77L188.778,236.72L189.379,236.67L189.98,236.62L190.581,236.571L191.182,236.522L191.784,236.472L192.385,236.423L192.986,236.374L193.587,236.325L194.188,236.276L194.79,236.227L195.391,236.179L195.992,236.13L196.593,236.082L197.194,236.033L197.796,235.985L198.397,235.937L198.998,235.889L199.599,235.841L200.2,235.793L200.802,235.745L201.403,235.697L202.004,235.65L202.605,235.602L203.206,235.555L203.808,235.508L204.409,235.46L205.01,235.413L205.611,235.366L206.212,235.319L206.814,235.273L207.415,235.226L208.016,235.179L208.617,235.133L209.218,235.086L209.82,235.04L210.421,234.994L211.022,234.947L211.623,234.901L212.224,234.855L212.826,234.809L213.427,234.764L214.028,234.718L214.629,234.672L215.23,234.627L215.832,234.581L216.433,234.536L217.034,234.49L217.635,234.445L218.236,234.4L218.838,234.355L219.439,234.31L220.04,234.265L220.641,234.22L221.242,234.176L221.844,234.131L222.445,234.086L223.046,234.042L223.647,233.997L224.248,233.953L224.85,233.909L225.451,233.865L226.052,233.821L226.653,233.777L227.255,233.733L227.856,233.689L228.457,233.645L229.058,233.601L229.659,233.558L230.261,233.514L230.862,233.471L231.463,233.427L232.064,233.384L232.665,233.341L233.267,233.298L233.868,233.254L234.469,233.211L235.07,233.168L235.671,233.126L236.273,233.083L236.874,233.04L237.475,232.997L238.076,232.955L238.677,232.912L239.279,232.87L239.88,232.827L240.481,232.785L241.082,232.743L241.683,232.701L242.285,232.659L242.886,232.617L243.487,232.575L244.088,232.533L244.689,232.491L245.291,232.449L245.892,232.407L246.493,232.366L247.094,232.324L247.695,232.283L248.297,232.241L248.898,232.2L249.499,232.159L250.1,232.117L250.701,232.076L251.303,232.035L251.904,231.994L252.505,231.953L253.106,231.912L253.707,231.871L254.309,231.831L254.91,231.79L255.511,231.749L256.112,231.709L256.713,231.668L257.315,231.628L257.916,231.587L258.517,231.547L259.118,231.507L259.719,231.466L260.321,231.426L260.922,231.386L261.523,231.346L262.124,231.306L262.725,231.266L263.327,231.226L263.928,231.186L264.529,231.147L265.13,231.107L265.731,231.067L266.333,231.028L266.934,230.988L267.535,230.949L268.136,230.909L268.737,230.87L269.339,230.831L269.94,230.792L270.541,230.752L271.142,230.713L271.743,230.674L272.345,230.635L272.946,230.596L273.547,230.557L274.148,230.519L274.749,230.48L275.351,230.441L275.952,230.402L276.553,230.364L277.154,230.325L277.756,230.287L278.357,230.248L278.958,230.21L279.559,230.171L280.16,230.133L280.762,230.095L281.363,230.057L281.964,230.019L282.565,229.98L283.166,229.942L283.768,229.904L284.369,229.866L284.97,229.829L285.571,229.791L286.172,229.753L286.774,229.715L287.375,229.678L287.976,229.64L288.577,229.602L289.178,229.565L289.78,229.527L290.381,229.49L290.982,229.452L291.583,229.415L292.184,229.378L292.786,229.341L293.387,229.303L293.988,229.266L294.589,229.229L295.19,229.192L295.792,229.155L296.393,229.118L296.994,229.081L297.595,229.044L298.196,229.008L298.798,228.971L299.399,228.934L300,228.897" stroke="#1ab73a" stroke-width="2"/></g></g><path class="foreground" aria-hidden="true" d="" display="none"/></g></g></g><path class="foreground" aria-hidden="true" d="" display="none"/></g></g><g class="mark-group role-scope concat_2_group" role="graphics-object" aria-roledescription="group mark container"><g transform="translate(0,713)"><path class="background" aria-hidden="true" d="M0.5,0.5h300v300h-300Z" stroke="#ddd"/><g><g class="mark-group role-axis" aria-hidden="true"><g transform="translate(0.5,300.5)"><path class="background" aria-hidden="true" d="M0,0h0v0h0Z" pointer-events="none"/><g><g class="mark-rule role-axis-grid" pointer-events="none"><line transform="translate(32,-300)" x2="0" y2="300" stroke="#ddd" stroke-width="1" opacity="1"/><line transform="translate(86,-300)" x2="0" y2="300" stroke="#ddd" stroke-width="1" opacity="1"/><line transform="translate(139,-300)" x2="0" y2="300" stroke="#ddd" stroke-width="1" opacity="1"/><line transform="translate(193,-300)" x2="0" y2="300" stroke="#ddd" stroke-width="1" opacity="1"/><line transform="translate(246,-300)" x2="0" y2="300" stroke="#ddd" stroke-width="1" opacity="1"/><line transform="translate(300,-300)" x2="0" y2="300" stroke="#ddd" stroke-width="1" opacity="1"/></g></g><path class="foreground" aria-hidden="true" d="" pointer-events="none" display="none"/></g></g><g class="mark-group role-axis" aria-hidden="true"><g transform="translate(0.5,0.5)"><path class="background" aria-hidden="true" d="M0,0h0v0h0Z" pointer-events="none"/><g><g class="mark-rule role-axis-grid" pointer-events="none"><line transform="translate(0,300)" x2="300" y2="0" stroke="#ddd" stroke-width="1" opacity="1"/><line transform="translate(0,250)" x2="300" y2="0" stroke="#ddd" stroke-width="1" opacity="1"/><line transform="translate(0,200)" x2="300" y2="0" stroke="#ddd" stroke-width="1" opacity="1"/><line transform="translate(0,150)" x2="300" y2="0" stroke="#ddd" stroke-width="1" opacity="1"/><line transform="translate(0,100)" x2="300" y2="0" stroke="#ddd" stroke-width="1" opacity="1"/><line transform="translate(0,50)" x2="300" y2="0" stroke="#ddd" stroke-width="1" opacity="1"/><line transform="translate(0,0)" x2="300" y2="0" stroke="#ddd" stroke-width="1" opacity="1"/></g></g><path class="foreground" aria-hidden="true" d="" pointer-events="none" display="none"/></g></g><g class="mark-group role-axis" role="graphics-symbol" aria-roledescription="axis" aria-label="X-axis titled '𝑇 (K)' for a linear scale with values from 200 to 3,000"><g transform="translate(0.5,300.5)"><path class="background" aria-hidden="true" d="M0,0h0v0h0Z" pointer-events="none"/><g><g class="mark-rule role-axis-tick" pointer-events="none"><line transform="translate(32,0)" x2="0" y2="5" stroke="#888" stroke-width="1" opacity="1"/><line transform="translate(86,0)" x2="0" y2="5" stroke="#888" stroke-width="1" opacity="1"/><line transform="translate(139,0)" x2="0" y2="5" stroke="#888" stroke-width="1" opacity="1"/><line transform="translate(193,0)" x2="0" y2="5" stroke="#888" stroke-width="1" opacity="1"/><line transform="translate(246,0)" x2="0" y2="5" stroke="#888" stroke-width="1" opacity="1"/><line transform="translate(300,0)" x2="0" y2="5" stroke="#888" stroke-width="1" opacity="1"/></g><g class="mark-text role-axis-label" pointer-events="none"><text text-anchor="middle" transform="translate(32.14285714285714,15)" font-family="sans-serif" font-size="10px" fill="#000" opacity="1">500</text><text text-anchor="middle" transform="translate(85.71428571428571,15)" font-family="sans-serif" font-size="10px" fill="#000" opacity="1">1,000</text><text text-anchor="middle" transform="translate(139.28571428571428,15)" font-family="sans-serif" font-size="10px" fill="#000" opacity="1">1,500</text><text text-anchor="middle" transform="translate(192.85714285714286,15)" font-family="sans-serif" font-size="10px" fill="#000" opacity="1">2,000</text><text text-anchor="middle" transform="translate(246.42857142857142,15)" font-family="sans-serif" font-size="10px" fill="#000" opacity="1">2,500</text><text text-anchor="end" transform="translate(300,15)" font-family="sans-serif" font-size="10px" fill="#000" opacity="1">3,000</text></g><g class="mark-rule role-axis-domain" pointer-events="none"><line transform="translate(0,0)" x2="300" y2="0" stroke="#888" stroke-width="1" opacity="1"/></g><g class="mark-text role-axis-title" pointer-events="none"><text text-anchor="middle" transform="translate(150,30)" font-family="sans-serif" font-size="11px" font-weight="bold" fill="#000" opacity="1">𝑇 (K)</text></g></g><path class="foreground" aria-hidden="true" d="" pointer-events="none" display="none"/></g></g><g class="mark-group role-axis" role="graphics-symbol" aria-roledescription="axis" aria-label="Y-axis titled '𝐻 (cal/mol)' for a linear scale with values from −300,000 to 0"><g transform="translate(0.5,0.5)"><path class="background" aria-hidden="true" d="M0,0h0v0h0Z" pointer-events="none"/><g><g class="mark-rule role-axis-tick" pointer-events="none"><line transform="translate(0,300)" x2="-5" y2="0" stroke="#888" stroke-width="1" opacity="1"/><line transform="translate(0,250)" x2="-5" y2="0" stroke="#888" stroke-width="1" opacity="1"/><line transform="translate(0,200)" x2="-5" y2="0" stroke="#888" stroke-width="1" opacity="1"/><line transform="translate(0,150)" x2="-5" y2="0" stroke="#888" stroke-width="1" opacity="1"/><line transform="translate(0,100)" x2="-5" y2="0" stroke="#888" stroke-width="1" opacity="1"/><line transform="translate(0,50)" x2="-5" y2="0" stroke="#888" stroke-width="1" opacity="1"/><line transform="translate(0,0)" x2="-5" y2="0" stroke="#888" stroke-width="1" opacity="1"/></g><g class="mark-text role-axis-label" pointer-events="none"><text text-anchor="end" transform="translate(-7,303)" font-family="sans-serif" font-size="10px" fill="#000" opacity="1">−300,000</text><text text-anchor="end" transform="translate(-7,253)" font-family="sans-serif" font-size="10px" fill="#000" opacity="1">−250,000</text><text text-anchor="end" transform="translate(-7,203.00000000000003)" font-family="sans-serif" font-size="10px" fill="#000" opacity="1">−200,000</text><text text-anchor="end" transform="translate(-7,153)" font-family="sans-serif" font-size="10px" fill="#000" opacity="1">−150,000</text><text text-anchor="end" transform="translate(-7,103.00000000000001)" font-family="sans-serif" font-size="10px" fill="#000" opacity="1">−100,000</text><text text-anchor="end" transform="translate(-7,52.999999999999986)" font-family="sans-serif" font-size="10px" fill="#000" opacity="1">−50,000</text><text text-anchor="end" transform="translate(-7,3)" font-family="sans-serif" font-size="10px" fill="#000" opacity="1">0</text></g><g class="mark-rule role-axis-domain" pointer-events="none"><line transform="translate(0,300)" x2="0" y2="-300" stroke="#888" stroke-width="1" opacity="1"/></g><g class="mark-text role-axis-title" pointer-events="none"><text text-anchor="middle" transform="translate(-52.9873046875,150) rotate(-90) translate(0,-2)" font-family="sans-serif" font-size="11px" font-weight="bold" fill="#000" opacity="1">𝐻 (cal/mol)</text></g></g><path class="foreground" aria-hidden="true" d="" pointer-events="none" display="none"/></g></g><g class="mark-group role-scope concat_2_pathgroup" role="graphics-object" aria-roledescription="group mark container"><g transform="translate(0,0)"><path class="background" aria-hidden="true" d="M0,0h300v300h-300Z"/><g><g class="mark-line role-mark concat_2_marks" role="graphics-object" aria-roledescription="line mark container"><path aria-label="𝑇 (K): 200; 𝐻 (cal/mol): −147561.03218; key: original" role="graphics-symbol" aria-roledescription="line mark" d="M0,147.561L0.601,147.493L1.202,147.425L1.804,147.355L2.405,147.284L3.006,147.212L3.607,147.139L4.208,147.065L4.81,146.989L5.411,146.913L6.012,146.836L6.613,146.757L7.214,146.678L7.816,146.597L8.417,146.515L9.018,146.432L9.619,146.348L10.22,146.263L10.822,146.177L11.423,146.09L12.024,146.002L12.625,145.913L13.226,145.823L13.828,145.731L14.429,145.639L15.03,145.546L15.631,145.451L16.232,145.356L16.834,145.259L17.435,145.162L18.036,145.063L18.637,144.964L19.238,144.863L19.84,144.762L20.441,144.659L21.042,144.556L21.643,144.452L22.244,144.346L22.846,144.24L23.447,144.133L24.048,144.025L24.649,143.916L25.251,143.806L25.852,143.695L26.453,143.583L27.054,143.471L27.655,143.357L28.257,143.243L28.858,143.128L29.459,143.012L30.06,142.895L30.661,142.777L31.263,142.659L31.864,142.54L32.465,142.419L33.066,142.299L33.667,142.177L34.269,142.055L34.87,141.932L35.471,141.808L36.072,141.683L36.673,141.558L37.275,141.432L37.876,141.305L38.477,141.178L39.078,141.05L39.679,140.921L40.281,140.792L40.882,140.662L41.483,140.531L42.084,140.4L42.685,140.268L43.287,140.136L43.888,140.003L44.489,139.869L45.09,139.735L45.691,139.601L46.293,139.466L46.894,139.33L47.495,139.194L48.096,139.057L48.697,138.92L49.299,138.782L49.9,138.644L50.501,138.506L51.102,138.367L51.703,138.227L52.305,138.087L52.906,137.947L53.507,137.807L54.108,137.665L54.709,137.524L55.311,137.382L55.912,137.24L56.513,137.098L57.114,136.955L57.715,136.812L58.317,136.668L58.918,136.525L59.519,136.381L60.12,136.236L60.721,136.092L61.323,135.947L61.924,135.802L62.525,135.656L63.126,135.511L63.727,135.365L64.329,135.219L64.93,135.072L65.531,134.926L66.132,134.779L66.733,134.632L67.335,134.485L67.936,134.337L68.537,134.19L69.138,134.042L69.739,133.894L70.341,133.746L70.942,133.598L71.543,133.45L72.144,133.302L72.745,133.153L73.347,133.004L73.948,132.855L74.549,132.707L75.15,132.557L75.752,132.408L76.353,132.259L76.954,132.109L77.555,131.96L78.156,131.81L78.758,131.661L79.359,131.511L79.96,131.361L80.561,131.211L81.162,131.06L81.764,130.91L82.365,130.76L82.966,130.609L83.567,130.459L84.168,130.308L84.77,130.157L85.371,130.006L85.972,129.855L86.573,129.704L87.174,129.553L87.776,129.402L88.377,129.25L88.978,129.099L89.579,128.947L90.18,128.795L90.782,128.644L91.383,128.492L91.984,128.34L92.585,128.188L93.186,128.035L93.788,127.883L94.389,127.731L94.99,127.578L95.591,127.425L96.192,127.273L96.794,127.12L97.395,126.967L97.996,126.814L98.597,126.661L99.198,126.507L99.8,126.354L100.401,126.2L101.002,126.047L101.603,125.893L102.204,125.739L102.806,125.586L103.407,125.432L104.008,125.277L104.609,125.123L105.21,124.969L105.812,124.815L106.413,124.66L107.014,124.505L107.615,124.351L108.216,124.196L108.818,124.041L109.419,123.886L110.02,123.731L110.621,123.576L111.222,123.42L111.824,123.265L112.425,123.109L113.026,122.954L113.627,122.798L114.228,122.642L114.83,122.486L115.431,122.33L116.032,122.174L116.633,122.017L117.234,121.861L117.836,121.704L118.437,121.548L119.038,121.391L119.639,121.234L120.24,121.077L120.842,120.92L121.443,120.763L122.044,120.606L122.645,120.449L123.246,120.291L123.848,120.134L124.449,119.976L125.05,119.818L125.651,119.66L126.253,119.502L126.854,119.344L127.455,119.186L128.056,119.028L128.657,118.869L129.259,118.711L129.86,118.552L130.461,118.394L131.062,118.235L131.663,118.076L132.265,117.917L132.866,117.758L133.467,117.598L134.068,117.439L134.669,117.28L135.271,117.12L135.872,116.96L136.473,116.801L137.074,116.641L137.675,116.481L138.277,116.321L138.878,116.16L139.479,116L140.08,115.84L140.681,115.679L141.283,115.519L141.884,115.358L142.485,115.197L143.086,115.036L143.687,114.875L144.289,114.714L144.89,114.552L145.491,114.391L146.092,114.23L146.693,114.068L147.295,113.906L147.896,113.744L148.497,113.583L149.098,113.421L149.699,113.258L150.301,113.096L150.902,112.934L151.503,112.771L152.104,112.609L152.705,112.446L153.307,112.283L153.908,112.12L154.509,111.957L155.11,111.794L155.711,111.631L156.313,111.468L156.914,111.304L157.515,111.141L158.116,110.977L158.717,110.813L159.319,110.649L159.92,110.485L160.521,110.321L161.122,110.157L161.723,109.993L162.325,109.828L162.926,109.664L163.527,109.499L164.128,109.334L164.729,109.17L165.331,109.005L165.932,108.84L166.533,108.674L167.134,108.509L167.735,108.344L168.337,108.178L168.938,108.012L169.539,107.847L170.14,107.681L170.741,107.515L171.343,107.349L171.944,107.183L172.545,107.016L173.146,106.85L173.747,106.684L174.349,106.517L174.95,106.35L175.551,106.183L176.152,106.016L176.754,105.849L177.355,105.682L177.956,105.515L178.557,105.347L179.158,105.18L179.76,105.012L180.361,104.845L180.962,104.677L181.563,104.509L182.164,104.341L182.766,104.173L183.367,104.004L183.968,103.836L184.569,103.667L185.17,103.499L185.772,103.33L186.373,103.161L186.974,102.992L187.575,102.823L188.176,102.654L188.778,102.485L189.379,102.315L189.98,102.146L190.581,101.976L191.182,101.807L191.784,101.637L192.385,101.467L192.986,101.297L193.587,101.127L194.188,100.956L194.79,100.786L195.391,100.615L195.992,100.445L196.593,100.274L197.194,100.103L197.796,99.932L198.397,99.761L198.998,99.59L199.599,99.419L200.2,99.247L200.802,99.076L201.403,98.904L202.004,98.732L202.605,98.56L203.206,98.388L203.808,98.216L204.409,98.044L205.01,97.872L205.611,97.699L206.212,97.527L206.814,97.354L207.415,97.181L208.016,97.008L208.617,96.835L209.218,96.662L209.82,96.489L210.421,96.316L211.022,96.142L211.623,95.969L212.224,95.795L212.826,95.621L213.427,95.447L214.028,95.273L214.629,95.099L215.23,94.925L215.832,94.751L216.433,94.576L217.034,94.402L217.635,94.227L218.236,94.052L218.838,93.877L219.439,93.702L220.04,93.527L220.641,93.352L221.242,93.176L221.844,93.001L222.445,92.825L223.046,92.649L223.647,92.474L224.248,92.298L224.85,92.121L225.451,91.945L226.052,91.769L226.653,91.593L227.255,91.416L227.856,91.239L228.457,91.063L229.058,90.886L229.659,90.709L230.261,90.532L230.862,90.354L231.463,90.177L232.064,90L232.665,89.822L233.267,89.644L233.868,89.467L234.469,89.289L235.07,89.111L235.671,88.932L236.273,88.754L236.874,88.576L237.475,88.397L238.076,88.219L238.677,88.04L239.279,87.861L239.88,87.682L240.481,87.503L241.082,87.324L241.683,87.145L242.285,86.965L242.886,86.786L243.487,86.606L244.088,86.426L244.689,86.247L245.291,86.067L245.892,85.886L246.493,85.706L247.094,85.526L247.695,85.345L248.297,85.165L248.898,84.984L249.499,84.803L250.1,84.622L250.701,84.441L251.303,84.26L251.904,84.079L252.505,83.898L253.106,83.716L253.707,83.535L254.309,83.353L254.91,83.171L255.511,82.989L256.112,82.807L256.713,82.625L257.315,82.443L257.916,82.26L258.517,82.078L259.118,81.895L259.719,81.712L260.321,81.529L260.922,81.346L261.523,81.163L262.124,80.98L262.725,80.797L263.327,80.613L263.928,80.43L264.529,80.246L265.13,80.062L265.731,79.878L266.333,79.694L266.934,79.51L267.535,79.326L268.136,79.141L268.737,78.957L269.339,78.772L269.94,78.588L270.541,78.403L271.142,78.218L271.743,78.033L272.345,77.847L272.946,77.662L273.547,77.477L274.148,77.291L274.749,77.106L275.351,76.92L275.952,76.734L276.553,76.548L277.154,76.362L277.756,76.175L278.357,75.989L278.958,75.803L279.559,75.616L280.16,75.429L280.762,75.243L281.363,75.056L281.964,74.869L282.565,74.681L283.166,74.494L283.768,74.307L284.369,74.119L284.97,73.932L285.571,73.744L286.172,73.556L286.774,73.368L287.375,73.18L287.976,72.992L288.577,72.803L289.178,72.615L289.78,72.427L290.381,72.238L290.982,72.049L291.583,71.86L292.184,71.671L292.786,71.482L293.387,71.293L293.988,71.103L294.589,70.914L295.19,70.724L295.792,70.535L296.393,70.345L296.994,70.155L297.595,69.965L298.196,69.775L298.798,69.585L299.399,69.394L300,69.204" stroke="#0066ff" stroke-width="2"/></g></g><path class="foreground" aria-hidden="true" d="" display="none"/></g><g transform="translate(0,0)"><path class="background" aria-hidden="true" d="M0,0h300v300h-300Z"/><g><g class="mark-line role-mark concat_2_marks" role="graphics-object" aria-roledescription="line mark container"><path aria-label="𝑇 (K): 200; 𝐻 (cal/mol): −295122.06436; key: doubled" role="graphics-symbol" aria-roledescription="line mark" d="M0,295.122L0.601,294.987L1.202,294.849L1.804,294.71L2.405,294.568L3.006,294.424L3.607,294.278L4.208,294.129L4.81,293.979L5.411,293.826L6.012,293.671L6.613,293.514L7.214,293.355L7.816,293.194L8.417,293.03L9.018,292.865L9.619,292.697L10.22,292.527L10.822,292.355L11.423,292.181L12.024,292.004L12.625,291.826L13.226,291.645L13.828,291.463L14.429,291.278L15.03,291.091L15.631,290.902L16.232,290.711L16.834,290.518L17.435,290.324L18.036,290.127L18.637,289.928L19.238,289.727L19.84,289.524L20.441,289.319L21.042,289.112L21.643,288.903L22.244,288.693L22.846,288.48L23.447,288.266L24.048,288.05L24.649,287.832L25.251,287.612L25.852,287.39L26.453,287.167L27.054,286.942L27.655,286.715L28.257,286.486L28.858,286.256L29.459,286.024L30.06,285.79L30.661,285.555L31.263,285.318L31.864,285.079L32.465,284.839L33.066,284.597L33.667,284.354L34.269,284.109L34.87,283.863L35.471,283.615L36.072,283.366L36.673,283.116L37.275,282.864L37.876,282.61L38.477,282.356L39.078,282.099L39.679,281.842L40.281,281.583L40.882,281.324L41.483,281.062L42.084,280.8L42.685,280.536L43.287,280.272L43.888,280.006L44.489,279.739L45.09,279.471L45.691,279.201L46.293,278.931L46.894,278.66L47.495,278.387L48.096,278.114L48.697,277.84L49.299,277.564L49.9,277.288L50.501,277.011L51.102,276.733L51.703,276.454L52.305,276.175L52.906,275.894L53.507,275.613L54.108,275.331L54.709,275.048L55.311,274.765L55.912,274.48L56.513,274.195L57.114,273.91L57.715,273.624L58.317,273.337L58.918,273.049L59.519,272.761L60.12,272.472L60.721,272.183L61.323,271.893L61.924,271.603L62.525,271.312L63.126,271.021L63.727,270.729L64.329,270.437L64.93,270.144L65.531,269.851L66.132,269.558L66.733,269.264L67.335,268.97L67.936,268.675L68.537,268.38L69.138,268.085L69.739,267.789L70.341,267.493L70.942,267.197L71.543,266.9L72.144,266.603L72.745,266.306L73.347,266.009L73.948,265.711L74.549,265.413L75.15,265.115L75.752,264.816L76.353,264.518L76.954,264.219L77.555,263.92L78.156,263.621L78.758,263.321L79.359,263.021L79.96,262.721L80.561,262.421L81.162,262.121L81.764,261.82L82.365,261.52L82.966,261.219L83.567,260.917L84.168,260.616L84.77,260.314L85.371,260.013L85.972,259.711L86.573,259.408L87.174,259.106L87.776,258.803L88.377,258.501L88.978,258.198L89.579,257.894L90.18,257.591L90.782,257.287L91.383,256.983L91.984,256.679L92.585,256.375L93.186,256.071L93.788,255.766L94.389,255.461L94.99,255.156L95.591,254.851L96.192,254.545L96.794,254.24L97.395,253.934L97.996,253.628L98.597,253.321L99.198,253.015L99.8,252.708L100.401,252.401L101.002,252.094L101.603,251.786L102.204,251.479L102.806,251.171L103.407,250.863L104.008,250.555L104.609,250.247L105.21,249.938L105.812,249.629L106.413,249.32L107.014,249.011L107.615,248.701L108.216,248.392L108.818,248.082L109.419,247.772L110.02,247.462L110.621,247.151L111.222,246.84L111.824,246.529L112.425,246.218L113.026,245.907L113.627,245.596L114.228,245.284L114.83,244.972L115.431,244.66L116.032,244.347L116.633,244.035L117.234,243.722L117.836,243.409L118.437,243.096L119.038,242.782L119.639,242.469L120.24,242.155L120.842,241.841L121.443,241.527L122.044,241.212L122.645,240.897L123.246,240.582L123.848,240.267L124.449,239.952L125.05,239.637L125.651,239.321L126.253,239.005L126.854,238.689L127.455,238.372L128.056,238.056L128.657,237.739L129.259,237.422L129.86,237.105L130.461,236.787L131.062,236.47L131.663,236.152L132.265,235.834L132.866,235.515L133.467,235.197L134.068,234.878L134.669,234.559L135.271,234.24L135.872,233.921L136.473,233.601L137.074,233.281L137.675,232.962L138.277,232.641L138.878,232.321L139.479,232L140.08,231.679L140.681,231.358L141.283,231.037L141.884,230.716L142.485,230.394L143.086,230.072L143.687,229.75L144.289,229.428L144.89,229.105L145.491,228.782L146.092,228.459L146.693,228.136L147.295,227.813L147.896,227.489L148.497,227.165L149.098,226.841L149.699,226.517L150.301,226.192L150.902,225.868L151.503,225.543L152.104,225.217L152.705,224.892L153.307,224.566L153.908,224.241L154.509,223.915L155.11,223.588L155.711,223.262L156.313,222.935L156.914,222.608L157.515,222.281L158.116,221.954L158.717,221.626L159.319,221.299L159.92,220.971L160.521,220.643L161.122,220.314L161.723,219.986L162.325,219.657L162.926,219.328L163.527,218.998L164.128,218.669L164.729,218.339L165.331,218.009L165.932,217.679L166.533,217.349L167.134,217.018L167.735,216.687L168.337,216.356L168.938,216.025L169.539,215.693L170.14,215.362L170.741,215.03L171.343,214.698L171.944,214.365L172.545,214.033L173.146,213.7L173.747,213.367L174.349,213.034L174.95,212.7L175.551,212.367L176.152,212.033L176.754,211.699L177.355,211.364L177.956,211.03L178.557,210.695L179.158,210.36L179.76,210.025L180.361,209.689L180.962,209.354L181.563,209.018L182.164,208.682L182.766,208.345L183.367,208.009L183.968,207.672L184.569,207.335L185.17,206.998L185.772,206.66L186.373,206.323L186.974,205.985L187.575,205.647L188.176,205.308L188.778,204.97L189.379,204.631L189.98,204.292L190.581,203.953L191.182,203.613L191.784,203.273L192.385,202.933L192.986,202.593L193.587,202.253L194.188,201.912L194.79,201.572L195.391,201.231L195.992,200.889L196.593,200.548L197.194,200.206L197.796,199.864L198.397,199.522L198.998,199.18L199.599,198.837L200.2,198.494L200.802,198.151L201.403,197.808L202.004,197.464L202.605,197.121L203.206,196.777L203.808,196.433L204.409,196.088L205.01,195.743L205.611,195.399L206.212,195.054L206.814,194.708L207.415,194.363L208.016,194.017L208.617,193.671L209.218,193.325L209.82,192.978L210.421,192.632L211.022,192.285L211.623,191.937L212.224,191.59L212.826,191.243L213.427,190.895L214.028,190.547L214.629,190.198L215.23,189.85L215.832,189.501L216.433,189.152L217.034,188.803L217.635,188.454L218.236,188.104L218.838,187.754L219.439,187.404L220.04,187.054L220.641,186.703L221.242,186.352L221.844,186.001L222.445,185.65L223.046,185.299L223.647,184.947L224.248,184.595L224.85,184.243L225.451,183.891L226.052,183.538L226.653,183.185L227.255,182.832L227.856,182.479L228.457,182.125L229.058,181.771L229.659,181.417L230.261,181.063L230.862,180.709L231.463,180.354L232.064,179.999L232.665,179.644L233.267,179.289L233.868,178.933L234.469,178.577L235.07,178.221L235.671,177.865L236.273,177.508L236.874,177.152L237.475,176.795L238.076,176.438L238.677,176.08L239.279,175.722L239.88,175.365L240.481,175.006L241.082,174.648L241.683,174.289L242.285,173.931L242.886,173.572L243.487,173.212L244.088,172.853L244.689,172.493L245.291,172.133L245.892,171.773L246.493,171.412L247.094,171.052L247.695,170.691L248.297,170.33L248.898,169.968L249.499,169.607L250.1,169.245L250.701,168.883L251.303,168.521L251.904,168.158L252.505,167.795L253.106,167.432L253.707,167.069L254.309,166.706L254.91,166.342L255.511,165.978L256.112,165.614L256.713,165.25L257.315,164.885L257.916,164.52L258.517,164.155L259.118,163.79L259.719,163.424L260.321,163.059L260.922,162.693L261.523,162.326L262.124,161.96L262.725,161.593L263.327,161.226L263.928,160.859L264.529,160.492L265.13,160.124L265.731,159.756L266.333,159.388L266.934,159.02L267.535,158.652L268.136,158.283L268.737,157.914L269.339,157.545L269.94,157.175L270.541,156.805L271.142,156.435L271.743,156.065L272.345,155.695L272.946,155.324L273.547,154.953L274.148,154.582L274.749,154.211L275.351,153.839L275.952,153.468L276.553,153.096L277.154,152.723L277.756,152.351L278.357,151.978L278.958,151.605L279.559,151.232L280.16,150.859L280.762,150.485L281.363,150.111L281.964,149.737L282.565,149.363L283.166,148.988L283.768,148.614L284.369,148.239L284.97,147.863L285.571,147.488L286.172,147.112L286.774,146.736L287.375,146.36L287.976,145.984L288.577,145.607L289.178,145.23L289.78,144.853L290.381,144.476L290.982,144.098L291.583,143.72L292.184,143.342L292.786,142.964L293.387,142.586L293.988,142.207L294.589,141.828L295.19,141.449L295.792,141.069L296.393,140.69L296.994,140.31L297.595,139.93L298.196,139.55L298.798,139.169L299.399,138.788L300,138.407" stroke="#ff0000" stroke-width="2"/></g></g><path class="foreground" aria-hidden="true" d="" display="none"/></g><g transform="translate(0,0)"><path class="background" aria-hidden="true" d="M0,0h300v300h-300Z"/><g><g class="mark-line role-mark concat_2_marks" role="graphics-object" aria-roledescription="line mark container"><path aria-label="𝑇 (K): 200; 𝐻 (cal/mol): −73780.5160901; key: halved" role="graphics-symbol" aria-roledescription="line mark" d="M0,73.781L0.601,73.747L1.202,73.712L1.804,73.677L2.405,73.642L3.006,73.606L3.607,73.569L4.208,73.532L4.81,73.495L5.411,73.457L6.012,73.418L6.613,73.379L7.214,73.339L7.816,73.298L8.417,73.258L9.018,73.216L9.619,73.174L10.22,73.132L10.822,73.089L11.423,73.045L12.024,73.001L12.625,72.956L13.226,72.911L13.828,72.866L14.429,72.819L15.03,72.773L15.631,72.726L16.232,72.678L16.834,72.63L17.435,72.581L18.036,72.532L18.637,72.482L19.238,72.432L19.84,72.381L20.441,72.33L21.042,72.278L21.643,72.226L22.244,72.173L22.846,72.12L23.447,72.067L24.048,72.012L24.649,71.958L25.251,71.903L25.852,71.848L26.453,71.792L27.054,71.735L27.655,71.679L28.257,71.622L28.858,71.564L29.459,71.506L30.06,71.447L30.661,71.389L31.263,71.329L31.864,71.27L32.465,71.21L33.066,71.149L33.667,71.089L34.269,71.027L34.87,70.966L35.471,70.904L36.072,70.842L36.673,70.779L37.275,70.716L37.876,70.653L38.477,70.589L39.078,70.525L39.679,70.461L40.281,70.396L40.882,70.331L41.483,70.266L42.084,70.2L42.685,70.134L43.287,70.068L43.888,70.001L44.489,69.935L45.09,69.868L45.691,69.8L46.293,69.733L46.894,69.665L47.495,69.597L48.096,69.529L48.697,69.46L49.299,69.391L49.9,69.322L50.501,69.253L51.102,69.183L51.703,69.114L52.305,69.044L52.906,68.974L53.507,68.903L54.108,68.833L54.709,68.762L55.311,68.691L55.912,68.62L56.513,68.549L57.114,68.477L57.715,68.406L58.317,68.334L58.918,68.262L59.519,68.19L60.12,68.118L60.721,68.046L61.323,67.973L61.924,67.901L62.525,67.828L63.126,67.755L63.727,67.682L64.329,67.609L64.93,67.536L65.531,67.463L66.132,67.389L66.733,67.316L67.335,67.242L67.936,67.169L68.537,67.095L69.138,67.021L69.739,66.947L70.341,66.873L70.942,66.799L71.543,66.725L72.144,66.651L72.745,66.577L73.347,66.502L73.948,66.428L74.549,66.353L75.15,66.279L75.752,66.204L76.353,66.129L76.954,66.055L77.555,65.98L78.156,65.905L78.758,65.83L79.359,65.755L79.96,65.68L80.561,65.605L81.162,65.53L81.764,65.455L82.365,65.38L82.966,65.305L83.567,65.229L84.168,65.154L84.77,65.079L85.371,65.003L85.972,64.928L86.573,64.852L87.174,64.777L87.776,64.701L88.377,64.625L88.978,64.549L89.579,64.474L90.18,64.398L90.782,64.322L91.383,64.246L91.984,64.17L92.585,64.094L93.186,64.018L93.788,63.942L94.389,63.865L94.99,63.789L95.591,63.713L96.192,63.636L96.794,63.56L97.395,63.483L97.996,63.407L98.597,63.33L99.198,63.254L99.8,63.177L100.401,63.1L101.002,63.023L101.603,62.947L102.204,62.87L102.806,62.793L103.407,62.716L104.008,62.639L104.609,62.562L105.21,62.484L105.812,62.407L106.413,62.33L107.014,62.253L107.615,62.175L108.216,62.098L108.818,62.02L109.419,61.943L110.02,61.865L110.621,61.788L111.222,61.71L111.824,61.632L112.425,61.555L113.026,61.477L113.627,61.399L114.228,61.321L114.83,61.243L115.431,61.165L116.032,61.087L116.633,61.009L117.234,60.93L117.836,60.852L118.437,60.774L119.038,60.696L119.639,60.617L120.24,60.539L120.842,60.46L121.443,60.382L122.044,60.303L122.645,60.224L123.246,60.146L123.848,60.067L124.449,59.988L125.05,59.909L125.651,59.83L126.253,59.751L126.854,59.672L127.455,59.593L128.056,59.514L128.657,59.435L129.259,59.355L129.86,59.276L130.461,59.197L131.062,59.117L131.663,59.038L132.265,58.958L132.866,58.879L133.467,58.799L134.068,58.72L134.669,58.64L135.271,58.56L135.872,58.48L136.473,58.4L137.074,58.32L137.675,58.24L138.277,58.16L138.878,58.08L139.479,58L140.08,57.92L140.681,57.84L141.283,57.759L141.884,57.679L142.485,57.598L143.086,57.518L143.687,57.437L144.289,57.357L144.89,57.276L145.491,57.196L146.092,57.115L146.693,57.034L147.295,56.953L147.896,56.872L148.497,56.791L149.098,56.71L149.699,56.629L150.301,56.548L150.902,56.467L151.503,56.386L152.104,56.304L152.705,56.223L153.307,56.142L153.908,56.06L154.509,55.979L155.11,55.897L155.711,55.815L156.313,55.734L156.914,55.652L157.515,55.57L158.116,55.489L158.717,55.407L159.319,55.325L159.92,55.243L160.521,55.161L161.122,55.079L161.723,54.996L162.325,54.914L162.926,54.832L163.527,54.75L164.128,54.667L164.729,54.585L165.331,54.502L165.932,54.42L166.533,54.337L167.134,54.255L167.735,54.172L168.337,54.089L168.938,54.006L169.539,53.923L170.14,53.84L170.741,53.757L171.343,53.674L171.944,53.591L172.545,53.508L173.146,53.425L173.747,53.342L174.349,53.258L174.95,53.175L175.551,53.092L176.152,53.008L176.754,52.925L177.355,52.841L177.956,52.757L178.557,52.674L179.158,52.59L179.76,52.506L180.361,52.422L180.962,52.338L181.563,52.254L182.164,52.17L182.766,52.086L183.367,52.002L183.968,51.918L184.569,51.834L185.17,51.749L185.772,51.665L186.373,51.581L186.974,51.496L187.575,51.412L188.176,51.327L188.778,51.242L189.379,51.158L189.98,51.073L190.581,50.988L191.182,50.903L191.784,50.818L192.385,50.733L192.986,50.648L193.587,50.563L194.188,50.478L194.79,50.393L195.391,50.308L195.992,50.222L196.593,50.137L197.194,50.052L197.796,49.966L198.397,49.881L198.998,49.795L199.599,49.709L200.2,49.624L200.802,49.538L201.403,49.452L202.004,49.366L202.605,49.28L203.206,49.194L203.808,49.108L204.409,49.022L205.01,48.936L205.611,48.85L206.212,48.763L206.814,48.677L207.415,48.591L208.016,48.504L208.617,48.418L209.218,48.331L209.82,48.245L210.421,48.158L211.022,48.071L211.623,47.984L212.224,47.898L212.826,47.811L213.427,47.724L214.028,47.637L214.629,47.55L215.23,47.462L215.832,47.375L216.433,47.288L217.034,47.201L217.635,47.113L218.236,47.026L218.838,46.939L219.439,46.851L220.04,46.763L220.641,46.676L221.242,46.588L221.844,46.5L222.445,46.413L223.046,46.325L223.647,46.237L224.248,46.149L224.85,46.061L225.451,45.973L226.052,45.884L226.653,45.796L227.255,45.708L227.856,45.62L228.457,45.531L229.058,45.443L229.659,45.354L230.261,45.266L230.862,45.177L231.463,45.089L232.064,45L232.665,44.911L233.267,44.822L233.868,44.733L234.469,44.644L235.07,44.555L235.671,44.466L236.273,44.377L236.874,44.288L237.475,44.199L238.076,44.109L238.677,44.02L239.279,43.931L239.88,43.841L240.481,43.752L241.082,43.662L241.683,43.572L242.285,43.483L242.886,43.393L243.487,43.303L244.088,43.213L244.689,43.123L245.291,43.033L245.892,42.943L246.493,42.853L247.094,42.763L247.695,42.673L248.297,42.582L248.898,42.492L249.499,42.402L250.1,42.311L250.701,42.221L251.303,42.13L251.904,42.04L252.505,41.949L253.106,41.858L253.707,41.767L254.309,41.676L254.91,41.586L255.511,41.495L256.112,41.404L256.713,41.312L257.315,41.221L257.916,41.13L258.517,41.039L259.118,40.947L259.719,40.856L260.321,40.765L260.922,40.673L261.523,40.582L262.124,40.49L262.725,40.398L263.327,40.307L263.928,40.215L264.529,40.123L265.13,40.031L265.731,39.939L266.333,39.847L266.934,39.755L267.535,39.663L268.136,39.571L268.737,39.478L269.339,39.386L269.94,39.294L270.541,39.201L271.142,39.109L271.743,39.016L272.345,38.924L272.946,38.831L273.547,38.738L274.148,38.646L274.749,38.553L275.351,38.46L275.952,38.367L276.553,38.274L277.154,38.181L277.756,38.088L278.357,37.995L278.958,37.901L279.559,37.808L280.16,37.715L280.762,37.621L281.363,37.528L281.964,37.434L282.565,37.341L283.166,37.247L283.768,37.153L284.369,37.06L284.97,36.966L285.571,36.872L286.172,36.778L286.774,36.684L287.375,36.59L287.976,36.496L288.577,36.402L289.178,36.308L289.78,36.213L290.381,36.119L290.982,36.025L291.583,35.93L292.184,35.836L292.786,35.741L293.387,35.646L293.988,35.552L294.589,35.457L295.19,35.362L295.792,35.267L296.393,35.172L296.994,35.078L297.595,34.982L298.196,34.887L298.798,34.792L299.399,34.697L300,34.602" stroke="#1ab73a" stroke-width="2"/></g></g><path class="foreground" aria-hidden="true" d="" display="none"/></g></g></g><path class="foreground" aria-hidden="true" d="" display="none"/></g></g><g class="mark-group role-legend" role="graphics-symbol" aria-roledescription="legend" aria-label="Symbol legend titled 'key' for stroke color with 3 values: original, doubled, halved"><g transform="translate(321,0)"><path class="background" aria-hidden="true" d="M0,0h52v53h-52Z" pointer-events="none"/><g><g class="mark-group role-legend-entry"><g transform="translate(0,16)"><path class="background" aria-hidden="true" d="M0,0h0v0h0Z" pointer-events="none"/><g><g class="mark-group role-scope" role="graphics-object" aria-roledescription="group mark container"><g transform="translate(0,0)"><path class="background" aria-hidden="true" d="M0,0h51.5908203125v11h-51.5908203125Z" pointer-events="none" opacity="1"/><g><g class="mark-symbol role-legend-symbol" pointer-events="none"><path transform="translate(6,6)" d="M-5,0L5,0" stroke="#0066ff" stroke-width="1.5" opacity="1"/></g><g class="mark-text role-legend-label" pointer-events="none"><text text-anchor="start" transform="translate(16,9)" font-family="sans-serif" font-size="10px" fill="#000" opacity="1">original</text></g></g><path class="foreground" aria-hidden="true" d="" pointer-events="none" display="none"/></g><g transform="translate(0,13)"><path class="background" aria-hidden="true" d="M0,0h51.5908203125v11h-51.5908203125Z" pointer-events="none" opacity="1"/><g><g class="mark-symbol role-legend-symbol" pointer-events="none"><path transform="translate(6,6)" d="M-5,0L5,0" stroke="#ff0000" stroke-width="1.5" opacity="1"/></g><g class="mark-text role-legend-label" pointer-events="none"><text text-anchor="start" transform="translate(16,9)" font-family="sans-serif" font-size="10px" fill="#000" opacity="1">doubled</text></g></g><path class="foreground" aria-hidden="true" d="" pointer-events="none" display="none"/></g><g transform="translate(0,26)"><path class="background" aria-hidden="true" d="M0,0h51.5908203125v11h-51.5908203125Z" pointer-events="none" opacity="1"/><g><g class="mark-symbol role-legend-symbol" pointer-events="none"><path transform="translate(6,6)" d="M-5,0L5,0" stroke="#1ab73a" stroke-width="1.5" opacity="1"/></g><g class="mark-text role-legend-label" pointer-events="none"><text text-anchor="start" transform="translate(16,9)" font-family="sans-serif" font-size="10px" fill="#000" opacity="1">halved</text></g></g><path class="foreground" aria-hidden="true" d="" pointer-events="none" display="none"/></g></g></g><path class="foreground" aria-hidden="true" d="" pointer-events="none" display="none"/></g></g><g class="mark-text role-legend-title" pointer-events="none"><text text-anchor="start" transform="translate(0,9)" font-family="sans-serif" font-size="11px" font-weight="bold" fill="#000" opacity="1">key</text></g></g><path class="foreground" aria-hidden="true" d="" pointer-events="none" display="none"/></g></g></g><path class="foreground" aria-hidden="true" d="" display="none"/></g></g></g></svg>