<svg xmlns="http://www.w3.org/2000/svg" xmlns:xlink="http://www.w3.org/1999/xlink" version="1.1" class="marks" width="370" height="347" viewBox="0 0 370 347"><rect width="370" height="347" fill="white"/><g fill="none" stroke-miterlimit="10" transform="translate(64,10)"><g class="mark-group role-frame root" role="graphics-object" aria-roledescription="group mark container"><g transform="translate(0,0)"><path class="background" aria-hidden="true" d="M0.5,0.5h300v300h-300Z" stroke="#ddd"/><g><g class="mark-group role-axis" aria-hidden="true"><g transform="translate(0.5,300.5)"><path class="background" aria-hidden="true" d="M0,0h0v0h0Z" pointer-events="none"/><g><g class="mark-rule role-axis-grid" pointer-events="none"><line transform="translate(0,-300)" x2="0" y2="300" stroke="#ddd" stroke-width="1" opacity="1"/><line transform="translate(33,-300)" x2="0" y2="300" stroke="#ddd" stroke-width="1" opacity="1"/><line transform="translate(67,-300)" x2="0" y2="300" stroke="#ddd" stroke-width="1" opacity="1"/><line transform="translate(100,-300)" x2="0" y2="300" stroke="#ddd" stroke-width="1" opacity="1"/><line transform="translate(133,-300)" x2="0" y2="300" stroke="#ddd" stroke-width="1" opacity="1"/><line transform="translate(167,-300)" x2="0" y2="300" stroke="#ddd" stroke-width="1" opacity="1"/><line transform="translate(200,-300)" x2="0" y2="300" stroke="#ddd" stroke-width="1" opacity="1"/><line transform="translate(233,-300)" x2="0" y2="300" stroke="#ddd" stroke-width="1" opacity="1"/><line transform="translate(267,-300)" x2="0" y2="300" stroke="#ddd" stroke-width="1" opacity="1"/><line transform="translate(300,-300)" x2="0" y2="300" stroke="#ddd" stroke-width="1" opacity="1"/></g></g><path class="foreground" aria-hidden="true" d="" pointer-events="none" display="none"/></g></g><g class="mark-group role-axis" aria-hidden="true"><g transform="translate(0.5,0.5)"><path class="background" aria-hidden="true" d="M0,0h0v0h0Z" pointer-events="none"/><g><g class="mark-rule role-axis-grid" pointer-events="none"><line transform="translate(0,300)" x2="300" y2="0" stroke="#ddd" stroke-width="1" opacity="1"/><line transform="translate(0,150)" x2="300" y2="0" stroke="#ddd" stroke-width="1" opacity="1"/><line transform="translate(0,0)" x2="300" y2="0" stroke="#ddd" stroke-width="1" opacity="1"/></g></g><path class="foreground" aria-hidden="true" d="" pointer-events="none" display="none"/></g></g><g class="mark-group role-axis" role="graphics-symbol" aria-roledescription="axis" aria-label="X-axis titled '1000/ğ‘‡ (1/K)' for a linear scale with values from 0.8 to 2.6"><g transform="translate(0.5,300.5)"><path class="background" aria-hidden="true" d="M0,0h0v0h0Z" pointer-events="none"/><g><g class="mark-rule role-axis-tick" pointer-events="none"><line transform="translate(0,0)" x2="0" y2="5" stroke="#888" stroke-width="1" opacity="1"/><line transform="translate(33,0)" x2="0" y2="5" stroke="#888" stroke-width="1" opacity="1"/><line transform="translate(67,0)" x2="0" y2="5" stroke="#888" stroke-width="1" opacity="1"/><line transform="translate(100,0)" x2="0" y2="5" stroke="#888" stroke-width="1" opacity="1"/><line transform="translate(133,0)" x2="0" y2="5" stroke="#888" stroke-width="1" opacity="1"/><line transform="translate(167,0)" x2="0" y2="5" stroke="#888" stroke-width="1" opacity="1"/><line transform="translate(200,0)" x2="0" y2="5" stroke="#888" stroke-width="1" opacity="1"/><line transform="translate(233,0)" x2="0" y2="5" stroke="#888" stroke-width="1" opacity="1"/><line transform="translate(267,0)" x2="0" y2="5" stroke="#888" stroke-width="1" opacity="1"/><line transform="translate(300,0)" x2="0" y2="5" stroke="#888" stroke-width="1" opacity="1"/></g><g class="mark-text role-axis-label" pointer-events="none"><text text-anchor="start" transform="translate(0,15)" font-family="sans-serif" font-size="10px" fill="#000" opacity="1">0.8</text><text text-anchor="middle" transform="translate(33.33333333333332,15)" font-family="sans-serif" font-size="10px" fill="#000" opacity="1">1.0</text><text text-anchor="middle" transform="translate(66.66666666666664,15)" font-family="sans-serif" font-size="10px" fill="#000" opacity="1">1.2</text><text text-anchor="middle" transform="translate(99.99999999999997,15)" font-family="sans-serif" font-size="10px" fill="#000" opacity="1">1.4</text><text text-anchor="middle" transform="translate(133.33333333333334,15)" font-family="sans-serif" font-size="10px" fill="#000" opacity="1">1.6</text><text text-anchor="middle" transform="translate(166.66666666666669,15)" font-family="sans-serif" font-size="10px" fill="#000" opacity="1">1.8</text><text text-anchor="middle" transform="translate(200,15)" font-family="sans-serif" font-size="10px" fill="#000" opacity="1">2.0</text><text text-anchor="middle" transform="translate(233.33333333333334,15)" font-family="sans-serif" font-size="10px" fill="#000" opacity="1">2.2</text><text text-anchor="middle" transform="translate(266.66666666666663,15)" font-family="sans-serif" font-size="10px" fill="#000" opacity="1">2.4</text><text text-anchor="end" transform="translate(300,15)" font-family="sans-serif" font-size="10px" fill="#000" opacity="1">2.6</text></g><g class="mark-rule role-axis-domain" pointer-events="none"><line transform="translate(0,0)" x2="300" y2="0" stroke="#888" stroke-width="1" opacity="1"/></g><g class="mark-text role-axis-title" pointer-events="none"><text text-anchor="middle" transform="translate(150,30)" font-family="sans-serif" font-size="11px" font-weight="bold" fill="#000" opacity="1">1000/ğ‘‡ (1/K)</text></g></g><path class="foreground" aria-hidden="true" d="" pointer-events="none" display="none"/></g></g><g class="mark-group role-axis" role="graphics-symbol" aria-roledescription="axis" aria-label="Y-axis titled 'ğ‘˜ (cmÂ³/mol/s)' for a log scale with values from 1.0e+11 to 1.0e+13"><g transform="translate(0.5,0.5)"><path class="background" aria-hidden="true" d="M0,0h0v0h0Z" pointer-events="none"/><g><g class="mark-rule role-axis-tick" pointer-events="none"><line transform="translate(0,300)" x2="-5" y2="0" stroke="#888" stroke-width="1" opacity="1"/><line transform="translate(0,150)" x2="-5" y2="0" stroke="#888" stroke-width="1" opacity="1"/><line transform="translate(0,0)" x2="-5" y2="0" stroke="#888" stroke-width="1" opacity="1"/></g><g class="mark-text role-axis-label" pointer-events="none"><text text-anchor="end" transform="translate(-7,303)" font-family="sans-serif" font-size="10px" fill="#000" opacity="1">1.0e+11</text><text text-anchor="end" transform="translate(-7,153.00000000000014)" font-family="sans-serif" font-size="10px" fill="#000" opacity="1">1.0e+12</text><text text-anchor="end" transform="translate(-7,3)" font-family="sans-serif" font-size="10px" fill="#000" opacity="1">1.0e+13</text></g><g class="mark-rule role-axis-domain" pointer-events="none"><line transform="translate(0,300)" x2="0" y2="-300" stroke="#888" stroke-width="1" opacity="1"/></g><g class="mark-text role-axis-title" pointer-events="none"><text text-anchor="middle" transform="translate(-47.42578125,150) rotate(-90) translate(0,-2)" font-family="sans-serif" font-size="11px" font-weight="bold" fill="#000" opacity="1">ğ‘˜ (cmÂ³/mol/s)</text></g></g><path class="foreground" aria-hidden="true" d="" pointer-events="none" display="none"/></g></g><g class="mark-line role-mark marks" role="graphics-object" aria-roledescription="line mark container"><path aria-label="1000/ğ‘‡ (1/K): 0.8; ğ‘˜ (cmÂ³/mol/s): 1.5e+11" role="graphics-symbol" aria-roledescription="line mark" d="M0,272.013L0.182,271.573L0.364,271.133L0.547,270.692L0.731,270.251L0.915,269.81L1.099,269.369L1.284,268.927L1.47,268.485L1.656,268.043L1.842,267.601L2.029,267.158L2.217,266.715L2.405,266.272L2.593,265.828L2.782,265.385L2.972,264.941L3.162,264.497L3.353,264.052L3.544,263.607L3.736,263.162L3.928,262.717L4.121,262.272L4.314,261.826L4.508,261.38L4.703,260.934L4.898,260.487L5.093,260.04L5.289,259.593L5.486,259.146L5.683,258.698L5.881,258.251L6.079,257.803L6.278,257.354L6.478,256.906L6.678,256.457L6.879,256.008L7.08,255.559L7.282,255.109L7.484,254.659L7.687,254.209L7.89,253.759L8.095,253.308L8.299,252.858L8.505,252.407L8.711,251.955L8.917,251.504L9.124,251.052L9.332,250.6L9.54,250.148L9.749,249.695L9.959,249.243L10.169,248.79L10.38,248.336L10.591,247.883L10.803,247.429L11.016,246.975L11.229,246.521L11.443,246.067L11.657,245.612L11.873,245.157L12.088,244.702L12.305,244.246L12.522,243.791L12.74,243.335L12.958,242.879L13.177,242.422L13.397,241.966L13.617,241.509L13.838,241.052L14.06,240.595L14.282,240.137L14.505,239.68L14.729,239.222L14.953,238.763L15.179,238.305L15.404,237.846L15.631,237.387L15.858,236.928L16.086,236.469L16.314,236.009L16.544,235.55L16.773,235.09L17.004,234.629L17.235,234.169L17.468,233.708L17.7,233.247L17.934,232.786L18.168,232.325L18.403,231.863L18.639,231.402L18.875,230.94L19.112,230.477L19.35,230.015L19.589,229.552L19.828,229.089L20.068,228.626L20.309,228.163L20.551,227.7L20.793,227.236L21.036,226.772L21.28,226.308L21.525,225.844L21.77,225.379L22.017,224.914L22.264,224.449L22.512,223.984L22.76,223.519L23.01,223.053L23.26,222.588L23.511,222.122L23.763,221.656L24.015,221.189L24.269,220.723L24.523,220.256L24.778,219.789L25.034,219.322L25.291,218.855L25.548,218.387L25.807,217.92L26.066,217.452L26.326,216.984L26.587,216.516L26.849,216.047L27.112,215.579L27.375,215.11L27.64,214.641L27.905,214.172L28.171,213.703L28.438,213.233L28.706,212.764L28.975,212.294L29.244,211.824L29.515,211.354L29.787,210.884L30.059,210.413L30.332,209.943L30.606,209.472L30.882,209.001L31.158,208.53L31.435,208.058L31.713,207.587L31.992,207.115L32.271,206.644L32.552,206.172L32.834,205.7L33.117,205.228L33.4,204.755L33.685,204.283L33.97,203.81L34.257,203.338L34.544,202.865L34.833,202.392L35.123,201.919L35.413,201.445L35.705,200.972L35.997,200.498L36.291,200.025L36.585,199.551L36.881,199.077L37.178,198.603L37.475,198.129L37.774,197.655L38.074,197.18L38.374,196.706L38.676,196.231L38.979,195.756L39.283,195.282L39.588,194.807L39.894,194.332L40.202,193.857L40.51,193.381L40.819,192.906L41.13,192.431L41.442,191.955L41.754,191.48L42.068,191.004L42.383,190.528L42.699,190.052L43.017,189.576L43.335,189.1L43.655,188.624L43.975,188.148L44.297,187.672L44.62,187.196L44.945,186.719L45.27,186.243L45.597,185.767L45.924,185.29L46.254,184.814L46.584,184.337L46.915,183.86L47.248,183.384L47.582,182.907L47.917,182.43L48.253,181.953L48.591,181.477L48.93,181L49.27,180.523L49.611,180.046L49.954,179.569L50.298,179.092L50.643,178.615L50.99,178.138L51.338,177.661L51.687,177.184L52.038,176.707L52.389,176.231L52.743,175.754L53.097,175.277L53.453,174.8L53.81,174.323L54.169,173.846L54.529,173.369L54.89,172.892L55.253,172.416L55.617,171.939L55.983,171.462L56.35,170.986L56.718,170.509L57.088,170.032L57.46,169.556L57.832,169.08L58.207,168.603L58.582,168.127L58.96,167.651L59.338,167.175L59.718,166.699L60.1,166.223L60.483,165.747L60.868,165.271L61.254,164.795L61.642,164.32L62.031,163.844L62.422,163.369L62.814,162.894L63.208,162.419L63.604,161.944L64.001,161.469L64.4,160.994L64.8,160.52L65.203,160.045L65.606,159.571L66.012,159.097L66.418,158.623L66.827,158.149L67.237,157.676L67.649,157.202L68.063,156.729L68.479,156.256L68.896,155.783L69.314,155.311L69.735,154.838L70.157,154.366L70.582,153.894L71.007,153.422L71.435,152.951L71.864,152.48L72.296,152.009L72.729,151.538L73.164,151.067L73.6,150.597L74.039,150.127L74.479,149.657L74.922,149.188L75.366,148.719L75.812,148.25L76.26,147.782L76.71,147.313L77.162,146.845L77.616,146.378L78.072,145.911L78.529,145.444L78.989,144.977L79.451,144.511L79.915,144.045L80.38,143.58L80.848,143.115L81.318,142.65L81.79,142.185L82.264,141.722L82.74,141.258L83.218,140.795L83.699,140.332L84.181,139.87L84.666,139.408L85.153,138.947L85.642,138.486L86.133,138.026L86.626,137.566L87.122,137.106L87.62,136.647L88.12,136.189L88.622,135.731L89.127,135.273L89.634,134.817L90.143,134.36L90.654,133.904L91.168,133.449L91.685,132.994L92.203,132.54L92.724,132.087L93.248,131.634L93.774,131.182L94.302,130.73L94.833,130.279L95.366,129.829L95.902,129.379L96.441,128.93L96.981,128.481L97.525,128.034L98.071,127.587L98.619,127.141L99.171,126.695L99.724,126.25L100.281,125.806L100.84,125.363L101.402,124.92L101.966,124.478L102.534,124.037L103.104,123.597L103.676,123.158L104.252,122.72L104.83,122.282L105.411,121.845L105.995,121.409L106.582,120.974L107.172,120.54L107.764,120.107L108.36,119.675L108.958,119.243L109.56,118.813L110.164,118.384L110.772,117.955L111.382,117.528L111.996,117.102L112.613,116.676L113.233,116.252L113.855,115.829L114.482,115.407L115.111,114.986L115.743,114.566L116.379,114.147L117.018,113.73L117.66,113.313L118.306,112.898L118.954,112.484L119.607,112.071L120.262,111.66L120.921,111.25L121.584,110.841L122.25,110.433L122.919,110.027L123.592,109.622L124.268,109.218L124.948,108.816L125.632,108.415L126.319,108.015L127.01,107.617L127.705,107.221L128.403,106.826L129.105,106.432L129.811,106.04L130.52,105.65L131.234,105.261L131.951,104.873L132.672,104.488L133.397,104.104L134.127,103.721L134.86,103.34L135.597,102.961L136.338,102.584L137.083,102.209L137.833,101.835L138.586,101.463L139.344,101.093L140.106,100.725L140.873,100.358L141.643,99.994L142.418,99.631L143.198,99.271L143.981,98.912L144.77,98.556L145.562,98.202L146.36,97.849L147.161,97.499L147.968,97.151L148.779,96.805L149.595,96.462L150.415,96.12L151.24,95.781L152.07,95.444L152.905,95.11L153.745,94.778L154.59,94.448L155.44,94.121L156.295,93.796L157.154,93.473L158.02,93.154L158.89,92.837L159.765,92.522L160.646,92.21L161.532,91.901L162.423,91.594L163.32,91.291L164.222,90.99L165.129,90.692L166.043,90.397L166.962,90.104L167.886,89.815L168.816,89.529L169.752,89.246L170.694,88.966L171.642,88.689L172.595,88.415L173.555,88.145L174.52,87.877L175.492,87.613L176.47,87.353L177.454,87.096L178.444,86.842L179.441,86.592L180.444,86.346L181.453,86.103L182.469,85.863L183.492,85.628L184.521,85.396L185.557,85.168L186.6,84.944L187.65,84.724L188.706,84.508L189.769,84.296L190.84,84.088L191.918,83.885L193.002,83.685L194.094,83.49L195.194,83.299L196.301,83.113L197.415,82.931L198.537,82.754L199.666,82.581L200.804,82.413L201.949,82.25L203.101,82.092L204.262,81.938L205.431,81.79L206.608,81.646L207.793,81.508L208.987,81.375L210.189,81.247L211.399,81.124L212.618,81.007L213.845,80.895L215.082,80.789L216.327,80.689L217.581,80.594L218.844,80.506L220.116,80.423L221.398,80.346L222.688,80.275L223.989,80.211L225.298,80.152L226.618,80.1L227.947,80.055L229.286,80.016L230.635,79.984L231.994,79.959L233.363,79.94L234.742,79.929L236.132,79.924L237.533,79.927L238.944,79.937L240.365,79.954L241.798,79.979L243.242,80.012L244.697,80.053L246.163,80.101L247.641,80.157L249.13,80.222L250.631,80.294L252.144,80.375L253.668,80.465L255.205,80.563L256.754,80.67L258.316,80.786L259.89,80.911L261.476,81.045L263.076,81.188L264.689,81.341L266.314,81.504L267.953,81.676L269.606,81.859L271.272,82.051L272.952,82.254L274.646,82.467L276.355,82.691L278.077,82.926L279.815,83.171L281.566,83.428L283.333,83.696" stroke="#0066ff" stroke-width="2"/></g></g><path class="foreground" aria-hidden="true" d="" display="none"/></g></g></g></svg>