<svg xmlns="http://www.w3.org/2000/svg" xmlns:xlink="http://www.w3.org/1999/xlink" version="1.1" class="marks" width="439" height="347" viewBox="0 0 439 347"><rect width="439" height="347" fill="white"/><g fill="none" stroke-miterlimit="10" transform="translate(64,10)"><g class="mark-group role-frame root" role="graphics-object" aria-roledescription="group mark container"><g transform="translate(0,0)"><path class="background" aria-hidden="true" d="M0.5,0.5h300v300h-300Z" stroke="#ddd"/><g><g class="mark-group role-axis" aria-hidden="true"><g transform="translate(0.5,300.5)"><path class="background" aria-hidden="true" d="M0,0h0v0h0Z" pointer-events="none"/><g><g class="mark-rule role-axis-grid" pointer-events="none"><line transform="translate(0,-300)" x2="0" y2="300" stroke="#ddd" stroke-width="1" opacity="1"/><line transform="translate(33,-300)" x2="0" y2="300" stroke="#ddd" stroke-width="1" opacity="1"/><line transform="translate(67,-300)" x2="0" y2="300" stroke="#ddd" stroke-width="1" opacity="1"/><line transform="translate(100,-300)" x2="0" y2="300" stroke="#ddd" stroke-width="1" opacity="1"/><line transform="translate(133,-300)" x2="0" y2="300" stroke="#ddd" stroke-width="1" opacity="1"/><line transform="translate(167,-300)" x2="0" y2="300" stroke="#ddd" stroke-width="1" opacity="1"/><line transform="translate(200,-300)" x2="0" y2="300" stroke="#ddd" stroke-width="1" opacity="1"/><line transform="translate(233,-300)" x2="0" y2="300" stroke="#ddd" stroke-width="1" opacity="1"/><line transform="translate(267,-300)" x2="0" y2="300" stroke="#ddd" stroke-width="1" opacity="1"/><line transform="translate(300,-300)" x2="0" y2="300" stroke="#ddd" stroke-width="1" opacity="1"/></g></g><path class="foreground" aria-hidden="true" d="" pointer-events="none" display="none"/></g></g><g class="mark-group role-axis" aria-hidden="true"><g transform="translate(0.5,0.5)"><path class="background" aria-hidden="true" d="M0,0h0v0h0Z" pointer-events="none"/><g><g class="mark-rule role-axis-grid" pointer-events="none"><line transform="translate(0,200)" x2="300" y2="0" stroke="#ddd" stroke-width="1" opacity="1"/><line transform="translate(0,100)" x2="300" y2="0" stroke="#ddd" stroke-width="1" opacity="1"/><line transform="translate(0,0)" x2="300" y2="0" stroke="#ddd" stroke-width="1" opacity="1"/></g></g><path class="foreground" aria-hidden="true" d="" pointer-events="none" display="none"/></g></g><g class="mark-group role-axis" role="graphics-symbol" aria-roledescription="axis" aria-label="X-axis titled '1000/ğ‘‡ (1/K)' for a linear scale with values from 0.8 to 2.6"><g transform="translate(0.5,300.5)"><path class="background" aria-hidden="true" d="M0,0h0v0h0Z" pointer-events="none"/><g><g class="mark-rule role-axis-tick" pointer-events="none"><line transform="translate(0,0)" x2="0" y2="5" stroke="#888" stroke-width="1" opacity="1"/><line transform="translate(33,0)" x2="0" y2="5" stroke="#888" stroke-width="1" opacity="1"/><line transform="translate(67,0)" x2="0" y2="5" stroke="#888" stroke-width="1" opacity="1"/><line transform="translate(100,0)" x2="0" y2="5" stroke="#888" stroke-width="1" opacity="1"/><line transform="translate(133,0)" x2="0" y2="5" stroke="#888" stroke-width="1" opacity="1"/><line transform="translate(167,0)" x2="0" y2="5" stroke="#888" stroke-width="1" opacity="1"/><line transform="translate(200,0)" x2="0" y2="5" stroke="#888" stroke-width="1" opacity="1"/><line transform="translate(233,0)" x2="0" y2="5" stroke="#888" stroke-width="1" opacity="1"/><line transform="translate(267,0)" x2="0" y2="5" stroke="#888" stroke-width="1" opacity="1"/><line transform="translate(300,0)" x2="0" y2="5" stroke="#888" stroke-width="1" opacity="1"/></g><g class="mark-text role-axis-label" pointer-events="none"><text text-anchor="start" transform="translate(0,15)" font-family="sans-serif" font-size="10px" fill="#000" opacity="1">0.8</text><text text-anchor="middle" transform="translate(33.33333333333332,15)" font-family="sans-serif" font-size="10px" fill="#000" opacity="1">1.0</text><text text-anchor="middle" transform="translate(66.66666666666664,15)" font-family="sans-serif" font-size="10px" fill="#000" opacity="1">1.2</text><text text-anchor="middle" transform="translate(99.99999999999997,15)" font-family="sans-serif" font-size="10px" fill="#000" opacity="1">1.4</text><text text-anchor="middle" transform="translate(133.33333333333334,15)" font-family="sans-serif" font-size="10px" fill="#000" opacity="1">1.6</text><text text-anchor="middle" transform="translate(166.66666666666669,15)" font-family="sans-serif" font-size="10px" fill="#000" opacity="1">1.8</text><text text-anchor="middle" transform="translate(200,15)" font-family="sans-serif" font-size="10px" fill="#000" opacity="1">2.0</text><text text-anchor="middle" transform="translate(233.33333333333334,15)" font-family="sans-serif" font-size="10px" fill="#000" opacity="1">2.2</text><text text-anchor="middle" transform="translate(266.66666666666663,15)" font-family="sans-serif" font-size="10px" fill="#000" opacity="1">2.4</text><text text-anchor="end" transform="translate(300,15)" font-family="sans-serif" font-size="10px" fill="#000" opacity="1">2.6</text></g><g class="mark-rule role-axis-domain" pointer-events="none"><line transform="translate(0,0)" x2="300" y2="0" stroke="#888" stroke-width="1" opacity="1"/></g><g class="mark-text role-axis-title" pointer-events="none"><text text-anchor="middle" transform="translate(150,30)" font-family="sans-serif" font-size="11px" font-weight="bold" fill="#000" opacity="1">1000/ğ‘‡ (1/K)</text></g></g><path class="foreground" aria-hidden="true" d="" pointer-events="none" display="none"/></g></g><g class="mark-group role-axis" role="graphics-symbol" aria-roledescription="axis" aria-label="Y-axis titled 'ğ‘˜ (cmÂ³/mol/s)' for a log scale with values from 1.0e+10 to 1.0e+13"><g transform="translate(0.5,0.5)"><path class="background" aria-hidden="true" d="M0,0h0v0h0Z" pointer-events="none"/><g><g class="mark-rule role-axis-tick" pointer-events="none"><line transform="translate(0,200)" x2="-5" y2="0" stroke="#888" stroke-width="1" opacity="1"/><line transform="translate(0,100)" x2="-5" y2="0" stroke="#888" stroke-width="1" opacity="1"/><line transform="translate(0,0)" x2="-5" y2="0" stroke="#888" stroke-width="1" opacity="1"/></g><g class="mark-text role-axis-label" pointer-events="none"><text text-anchor="end" transform="translate(-7,202.99999999999994)" font-family="sans-serif" font-size="10px" fill="#000" opacity="1">1.0e+11</text><text text-anchor="end" transform="translate(-7,103.00000000000004)" font-family="sans-serif" font-size="10px" fill="#000" opacity="1">1.0e+12</text><text text-anchor="end" transform="translate(-7,3)" font-family="sans-serif" font-size="10px" fill="#000" opacity="1">1.0e+13</text></g><g class="mark-rule role-axis-domain" pointer-events="none"><line transform="translate(0,300)" x2="0" y2="-300" stroke="#888" stroke-width="1" opacity="1"/></g><g class="mark-text role-axis-title" pointer-events="none"><text text-anchor="middle" transform="translate(-47.42578125,150) rotate(-90) translate(0,-2)" font-family="sans-serif" font-size="11px" font-weight="bold" fill="#000" opacity="1">ğ‘˜ (cmÂ³/mol/s)</text></g></g><path class="foreground" aria-hidden="true" d="" pointer-events="none" display="none"/></g></g><g class="mark-group role-scope pathgroup" role="graphics-object" aria-roledescription="group mark container"><g transform="translate(0,0)"><path class="background" aria-hidden="true" d="M0,0h300v300h-300Z"/><g><g class="mark-line role-mark marks" role="graphics-object" aria-roledescription="line mark container"><path aria-label="1000/ğ‘‡ (1/K): 0.8; ğ‘˜ (cmÂ³/mol/s): 1.5e+11; key: original" role="graphics-symbol" aria-roledescription="line mark" d="M0,181.342L0.182,181.049L0.364,180.755L0.547,180.461L0.731,180.167L0.915,179.873L1.099,179.579L1.284,179.285L1.47,178.99L1.656,178.695L1.842,178.4L2.029,178.105L2.217,177.81L2.405,177.515L2.593,177.219L2.782,176.923L2.972,176.627L3.162,176.331L3.353,176.035L3.544,175.738L3.736,175.442L3.928,175.145L4.121,174.848L4.314,174.551L4.508,174.253L4.703,173.956L4.898,173.658L5.093,173.36L5.289,173.062L5.486,172.764L5.683,172.466L5.881,172.167L6.079,171.868L6.278,171.57L6.478,171.271L6.678,170.971L6.879,170.672L7.08,170.372L7.282,170.073L7.484,169.773L7.687,169.473L7.89,169.173L8.095,168.872L8.299,168.572L8.505,168.271L8.711,167.97L8.917,167.669L9.124,167.368L9.332,167.067L9.54,166.765L9.749,166.464L9.959,166.162L10.169,165.86L10.38,165.558L10.591,165.255L10.803,164.953L11.016,164.65L11.229,164.347L11.443,164.044L11.657,163.741L11.873,163.438L12.088,163.135L12.305,162.831L12.522,162.527L12.74,162.223L12.958,161.919L13.177,161.615L13.397,161.311L13.617,161.006L13.838,160.701L14.06,160.397L14.282,160.092L14.505,159.786L14.729,159.481L14.953,159.176L15.179,158.87L15.404,158.564L15.631,158.258L15.858,157.952L16.086,157.646L16.314,157.34L16.544,157.033L16.773,156.726L17.004,156.42L17.235,156.113L17.468,155.805L17.7,155.498L17.934,155.191L18.168,154.883L18.403,154.576L18.639,154.268L18.875,153.96L19.112,153.652L19.35,153.343L19.589,153.035L19.828,152.726L20.068,152.418L20.309,152.109L20.551,151.8L20.793,151.491L21.036,151.181L21.28,150.872L21.525,150.562L21.77,150.253L22.017,149.943L22.264,149.633L22.512,149.323L22.76,149.013L23.01,148.702L23.26,148.392L23.511,148.081L23.763,147.77L24.015,147.46L24.269,147.149L24.523,146.837L24.778,146.526L25.034,146.215L25.291,145.903L25.548,145.592L25.807,145.28L26.066,144.968L26.326,144.656L26.587,144.344L26.849,144.032L27.112,143.719L27.375,143.407L27.64,143.094L27.905,142.781L28.171,142.469L28.438,142.156L28.706,141.842L28.975,141.529L29.244,141.216L29.515,140.903L29.787,140.589L30.059,140.275L30.332,139.962L30.606,139.648L30.882,139.334L31.158,139.02L31.435,138.706L31.713,138.391L31.992,138.077L32.271,137.762L32.552,137.448L32.834,137.133L33.117,136.818L33.4,136.504L33.685,136.189L33.97,135.874L34.257,135.558L34.544,135.243L34.833,134.928L35.123,134.612L35.413,134.297L35.705,133.981L35.997,133.666L36.291,133.35L36.585,133.034L36.881,132.718L37.178,132.402L37.475,132.086L37.774,131.77L38.074,131.453L38.374,131.137L38.676,130.821L38.979,130.504L39.283,130.188L39.588,129.871L39.894,129.554L40.202,129.238L40.51,128.921L40.819,128.604L41.13,128.287L41.442,127.97L41.754,127.653L42.068,127.336L42.383,127.019L42.699,126.702L43.017,126.384L43.335,126.067L43.655,125.75L43.975,125.432L44.297,125.115L44.62,124.797L44.945,124.48L45.27,124.162L45.597,123.844L45.924,123.527L46.254,123.209L46.584,122.891L46.915,122.574L47.248,122.256L47.582,121.938L47.917,121.62L48.253,121.302L48.591,120.984L48.93,120.667L49.27,120.349L49.611,120.031L49.954,119.713L50.298,119.395L50.643,119.077L50.99,118.759L51.338,118.441L51.687,118.123L52.038,117.805L52.389,117.487L52.743,117.169L53.097,116.851L53.453,116.533L53.81,116.215L54.169,115.897L54.529,115.579L54.89,115.262L55.253,114.944L55.617,114.626L55.983,114.308L56.35,113.99L56.718,113.673L57.088,113.355L57.46,113.037L57.832,112.72L58.207,112.402L58.582,112.085L58.96,111.767L59.338,111.45L59.718,111.132L60.1,110.815L60.483,110.498L60.868,110.181L61.254,109.864L61.642,109.547L62.031,109.23L62.422,108.913L62.814,108.596L63.208,108.279L63.604,107.962L64.001,107.646L64.4,107.329L64.8,107.013L65.203,106.697L65.606,106.381L66.012,106.065L66.418,105.749L66.827,105.433L67.237,105.117L67.649,104.802L68.063,104.486L68.479,104.171L68.896,103.856L69.314,103.54L69.735,103.226L70.157,102.911L70.582,102.596L71.007,102.282L71.435,101.967L71.864,101.653L72.296,101.339L72.729,101.025L73.164,100.712L73.6,100.398L74.039,100.085L74.479,99.772L74.922,99.459L75.366,99.146L75.812,98.833L76.26,98.521L76.71,98.209L77.162,97.897L77.616,97.585L78.072,97.274L78.529,96.962L78.989,96.651L79.451,96.341L79.915,96.03L80.38,95.72L80.848,95.41L81.318,95.1L81.79,94.79L82.264,94.481L82.74,94.172L83.218,93.863L83.699,93.555L84.181,93.247L84.666,92.939L85.153,92.631L85.642,92.324L86.133,92.017L86.626,91.71L87.122,91.404L87.62,91.098L88.12,90.793L88.622,90.487L89.127,90.182L89.634,89.878L90.143,89.573L90.654,89.27L91.168,88.966L91.685,88.663L92.203,88.36L92.724,88.058L93.248,87.756L93.774,87.454L94.302,87.153L94.833,86.853L95.366,86.552L95.902,86.253L96.441,85.953L96.981,85.654L97.525,85.356L98.071,85.058L98.619,84.76L99.171,84.463L99.724,84.167L100.281,83.871L100.84,83.575L101.402,83.28L101.966,82.986L102.534,82.692L103.104,82.398L103.676,82.105L104.252,81.813L104.83,81.521L105.411,81.23L105.995,80.939L106.582,80.649L107.172,80.36L107.764,80.071L108.36,79.783L108.958,79.496L109.56,79.209L110.164,78.922L110.772,78.637L111.382,78.352L111.996,78.068L112.613,77.784L113.233,77.501L113.855,77.219L114.482,76.938L115.111,76.657L115.743,76.377L116.379,76.098L117.018,75.82L117.66,75.542L118.306,75.265L118.954,74.989L119.607,74.714L120.262,74.44L120.921,74.166L121.584,73.894L122.25,73.622L122.919,73.351L123.592,73.081L124.268,72.812L124.948,72.544L125.632,72.277L126.319,72.01L127.01,71.745L127.705,71.481L128.403,71.217L129.105,70.955L129.811,70.693L130.52,70.433L131.234,70.174L131.951,69.916L132.672,69.658L133.397,69.402L134.127,69.147L134.86,68.894L135.597,68.641L136.338,68.389L137.083,68.139L137.833,67.89L138.586,67.642L139.344,67.395L140.106,67.15L140.873,66.906L141.643,66.663L142.418,66.421L143.198,66.181L143.981,65.942L144.77,65.704L145.562,65.468L146.36,65.233L147.161,64.999L147.968,64.767L148.779,64.537L149.595,64.308L150.415,64.08L151.24,63.854L152.07,63.629L152.905,63.406L153.745,63.185L154.59,62.965L155.44,62.747L156.295,62.53L157.154,62.316L158.02,62.102L158.89,61.891L159.765,61.681L160.646,61.473L161.532,61.267L162.423,61.063L163.32,60.86L164.222,60.66L165.129,60.461L166.043,60.264L166.962,60.07L167.886,59.877L168.816,59.686L169.752,59.497L170.694,59.31L171.642,59.126L172.595,58.943L173.555,58.763L174.52,58.585L175.492,58.409L176.47,58.235L177.454,58.064L178.444,57.895L179.441,57.728L180.444,57.564L181.453,57.402L182.469,57.242L183.492,57.085L184.521,56.931L185.557,56.779L186.6,56.63L187.65,56.483L188.706,56.339L189.769,56.198L190.84,56.059L191.918,55.923L193.002,55.79L194.094,55.66L195.194,55.533L196.301,55.409L197.415,55.287L198.537,55.169L199.666,55.054L200.804,54.942L201.949,54.833L203.101,54.728L204.262,54.625L205.431,54.526L206.608,54.431L207.793,54.339L208.987,54.25L210.189,54.164L211.399,54.083L212.618,54.005L213.845,53.93L215.082,53.86L216.327,53.793L217.581,53.73L218.844,53.67L220.116,53.615L221.398,53.564L222.688,53.517L223.989,53.474L225.298,53.435L226.618,53.4L227.947,53.37L229.286,53.344L230.635,53.323L231.994,53.306L233.363,53.293L234.742,53.286L236.132,53.283L237.533,53.285L238.944,53.291L240.365,53.303L241.798,53.32L243.242,53.341L244.697,53.368L246.163,53.401L247.641,53.438L249.13,53.481L250.631,53.529L252.144,53.583L253.668,53.643L255.205,53.709L256.754,53.78L258.316,53.857L259.89,53.941L261.476,54.03L263.076,54.126L264.689,54.228L266.314,54.336L267.953,54.451L269.606,54.573L271.272,54.701L272.952,54.836L274.646,54.978L276.355,55.127L278.077,55.284L279.815,55.447L281.566,55.618L283.333,55.797" stroke="#0066ff" stroke-width="2"/></g></g><path class="foreground" aria-hidden="true" d="" display="none"/></g><g transform="translate(0,0)"><path class="background" aria-hidden="true" d="M0,0h300v300h-300Z"/><g><g class="mark-line role-mark marks" role="graphics-object" aria-roledescription="line mark container"><path aria-label="1000/ğ‘‡ (1/K): 0.8; ğ‘˜ (cmÂ³/mol/s): 3.1e+11; key: doubled" role="graphics-symbol" aria-roledescription="line mark" d="M0,151.239L0.182,150.946L0.364,150.652L0.547,150.358L0.731,150.064L0.915,149.77L1.099,149.476L1.284,149.182L1.47,148.887L1.656,148.592L1.842,148.297L2.029,148.002L2.217,147.707L2.405,147.412L2.593,147.116L2.782,146.82L2.972,146.524L3.162,146.228L3.353,145.932L3.544,145.635L3.736,145.339L3.928,145.042L4.121,144.745L4.314,144.448L4.508,144.15L4.703,143.853L4.898,143.555L5.093,143.257L5.289,142.959L5.486,142.661L5.683,142.363L5.881,142.064L6.079,141.765L6.278,141.467L6.478,141.168L6.678,140.868L6.879,140.569L7.08,140.269L7.282,139.97L7.484,139.67L7.687,139.37L7.89,139.07L8.095,138.769L8.299,138.469L8.505,138.168L8.711,137.867L8.917,137.566L9.124,137.265L9.332,136.964L9.54,136.662L9.749,136.361L9.959,136.059L10.169,135.757L10.38,135.455L10.591,135.152L10.803,134.85L11.016,134.547L11.229,134.244L11.443,133.941L11.657,133.638L11.873,133.335L12.088,133.032L12.305,132.728L12.522,132.424L12.74,132.12L12.958,131.816L13.177,131.512L13.397,131.208L13.617,130.903L13.838,130.598L14.06,130.294L14.282,129.989L14.505,129.683L14.729,129.378L14.953,129.073L15.179,128.767L15.404,128.461L15.631,128.155L15.858,127.849L16.086,127.543L16.314,127.237L16.544,126.93L16.773,126.623L17.004,126.317L17.235,126.01L17.468,125.702L17.7,125.395L17.934,125.088L18.168,124.78L18.403,124.473L18.639,124.165L18.875,123.857L19.112,123.549L19.35,123.24L19.589,122.932L19.828,122.623L20.068,122.315L20.309,122.006L20.551,121.697L20.793,121.388L21.036,121.078L21.28,120.769L21.525,120.459L21.77,120.15L22.017,119.84L22.264,119.53L22.512,119.22L22.76,118.91L23.01,118.599L23.26,118.289L23.511,117.978L23.763,117.667L24.015,117.357L24.269,117.046L24.523,116.734L24.778,116.423L25.034,116.112L25.291,115.8L25.548,115.489L25.807,115.177L26.066,114.865L26.326,114.553L26.587,114.241L26.849,113.929L27.112,113.616L27.375,113.304L27.64,112.991L27.905,112.678L28.171,112.366L28.438,112.053L28.706,111.739L28.975,111.426L29.244,111.113L29.515,110.8L29.787,110.486L30.059,110.172L30.332,109.859L30.606,109.545L30.882,109.231L31.158,108.917L31.435,108.603L31.713,108.288L31.992,107.974L32.271,107.659L32.552,107.345L32.834,107.03L33.117,106.715L33.4,106.401L33.685,106.086L33.97,105.771L34.257,105.455L34.544,105.14L34.833,104.825L35.123,104.509L35.413,104.194L35.705,103.878L35.997,103.563L36.291,103.247L36.585,102.931L36.881,102.615L37.178,102.299L37.475,101.983L37.774,101.667L38.074,101.35L38.374,101.034L38.676,100.718L38.979,100.401L39.283,100.085L39.588,99.768L39.894,99.451L40.202,99.135L40.51,98.818L40.819,98.501L41.13,98.184L41.442,97.867L41.754,97.55L42.068,97.233L42.383,96.916L42.699,96.599L43.017,96.281L43.335,95.964L43.655,95.647L43.975,95.329L44.297,95.012L44.62,94.694L44.945,94.377L45.27,94.059L45.597,93.741L45.924,93.424L46.254,93.106L46.584,92.788L46.915,92.471L47.248,92.153L47.582,91.835L47.917,91.517L48.253,91.199L48.591,90.881L48.93,90.564L49.27,90.246L49.611,89.928L49.954,89.61L50.298,89.292L50.643,88.974L50.99,88.656L51.338,88.338L51.687,88.02L52.038,87.702L52.389,87.384L52.743,87.066L53.097,86.748L53.453,86.43L53.81,86.112L54.169,85.794L54.529,85.476L54.89,85.159L55.253,84.841L55.617,84.523L55.983,84.205L56.35,83.887L56.718,83.57L57.088,83.252L57.46,82.934L57.832,82.617L58.207,82.299L58.582,81.982L58.96,81.664L59.338,81.347L59.718,81.029L60.1,80.712L60.483,80.395L60.868,80.078L61.254,79.761L61.642,79.444L62.031,79.127L62.422,78.81L62.814,78.493L63.208,78.176L63.604,77.859L64.001,77.543L64.4,77.226L64.8,76.91L65.203,76.594L65.606,76.278L66.012,75.962L66.418,75.646L66.827,75.33L67.237,75.014L67.649,74.699L68.063,74.383L68.479,74.068L68.896,73.753L69.314,73.437L69.735,73.123L70.157,72.808L70.582,72.493L71.007,72.179L71.435,71.864L71.864,71.55L72.296,71.236L72.729,70.922L73.164,70.609L73.6,70.295L74.039,69.982L74.479,69.669L74.922,69.356L75.366,69.043L75.812,68.73L76.26,68.418L76.71,68.106L77.162,67.794L77.616,67.482L78.072,67.171L78.529,66.859L78.989,66.548L79.451,66.238L79.915,65.927L80.38,65.617L80.848,65.307L81.318,64.997L81.79,64.687L82.264,64.378L82.74,64.069L83.218,63.76L83.699,63.452L84.181,63.144L84.666,62.836L85.153,62.528L85.642,62.221L86.133,61.914L86.626,61.607L87.122,61.301L87.62,60.995L88.12,60.69L88.622,60.384L89.127,60.079L89.634,59.775L90.143,59.47L90.654,59.167L91.168,58.863L91.685,58.56L92.203,58.257L92.724,57.955L93.248,57.653L93.774,57.351L94.302,57.05L94.833,56.75L95.366,56.449L95.902,56.15L96.441,55.85L96.981,55.551L97.525,55.253L98.071,54.955L98.619,54.657L99.171,54.36L99.724,54.064L100.281,53.768L100.84,53.472L101.402,53.177L101.966,52.883L102.534,52.589L103.104,52.295L103.676,52.002L104.252,51.71L104.83,51.418L105.411,51.127L105.995,50.836L106.582,50.546L107.172,50.257L107.764,49.968L108.36,49.68L108.958,49.393L109.56,49.106L110.164,48.819L110.772,48.534L111.382,48.249L111.996,47.965L112.613,47.681L113.233,47.398L113.855,47.116L114.482,46.835L115.111,46.554L115.743,46.274L116.379,45.995L117.018,45.717L117.66,45.439L118.306,45.162L118.954,44.886L119.607,44.611L120.262,44.337L120.921,44.063L121.584,43.791L122.25,43.519L122.919,43.248L123.592,42.978L124.268,42.709L124.948,42.441L125.632,42.174L126.319,41.907L127.01,41.642L127.705,41.378L128.403,41.114L129.105,40.852L129.811,40.59L130.52,40.33L131.234,40.071L131.951,39.813L132.672,39.555L133.397,39.299L134.127,39.044L134.86,38.791L135.597,38.538L136.338,38.286L137.083,38.036L137.833,37.787L138.586,37.539L139.344,37.292L140.106,37.047L140.873,36.803L141.643,36.56L142.418,36.318L143.198,36.078L143.981,35.839L144.77,35.601L145.562,35.365L146.36,35.13L147.161,34.896L147.968,34.664L148.779,34.434L149.595,34.205L150.415,33.977L151.24,33.751L152.07,33.526L152.905,33.303L153.745,33.082L154.59,32.862L155.44,32.644L156.295,32.427L157.154,32.213L158.02,31.999L158.89,31.788L159.765,31.578L160.646,31.37L161.532,31.164L162.423,30.96L163.32,30.757L164.222,30.557L165.129,30.358L166.043,30.161L166.962,29.967L167.886,29.774L168.816,29.583L169.752,29.394L170.694,29.207L171.642,29.023L172.595,28.84L173.555,28.66L174.52,28.482L175.492,28.306L176.47,28.132L177.454,27.961L178.444,27.792L179.441,27.625L180.444,27.461L181.453,27.299L182.469,27.139L183.492,26.982L184.521,26.828L185.557,26.676L186.6,26.527L187.65,26.38L188.706,26.236L189.769,26.095L190.84,25.956L191.918,25.82L193.002,25.687L194.094,25.557L195.194,25.43L196.301,25.306L197.415,25.184L198.537,25.066L199.666,24.951L200.804,24.839L201.949,24.73L203.101,24.625L204.262,24.522L205.431,24.423L206.608,24.328L207.793,24.236L208.987,24.147L210.189,24.061L211.399,23.98L212.618,23.902L213.845,23.827L215.082,23.757L216.327,23.69L217.581,23.627L218.844,23.567L220.116,23.512L221.398,23.461L222.688,23.414L223.989,23.371L225.298,23.332L226.618,23.297L227.947,23.267L229.286,23.241L230.635,23.22L231.994,23.203L233.363,23.19L234.742,23.183L236.132,23.18L237.533,23.182L238.944,23.188L240.365,23.2L241.798,23.217L243.242,23.238L244.697,23.265L246.163,23.298L247.641,23.335L249.13,23.378L250.631,23.426L252.144,23.48L253.668,23.54L255.205,23.606L256.754,23.677L258.316,23.754L259.89,23.838L261.476,23.927L263.076,24.023L264.689,24.125L266.314,24.233L267.953,24.348L269.606,24.47L271.272,24.598L272.952,24.733L274.646,24.875L276.355,25.024L278.077,25.181L279.815,25.344L281.566,25.515L283.333,25.694" stroke="#ff0000" stroke-width="2"/></g></g><path class="foreground" aria-hidden="true" d="" display="none"/></g><g transform="translate(0,0)"><path class="background" aria-hidden="true" d="M0,0h300v300h-300Z"/><g><g class="mark-line role-mark marks" role="graphics-object" aria-roledescription="line mark container"><path aria-label="1000/ğ‘‡ (1/K): 0.8; ğ‘˜ (cmÂ³/mol/s): 7.7e+10; key: halved" role="graphics-symbol" aria-roledescription="line mark" d="M0,211.445L0.182,211.152L0.364,210.858L0.547,210.564L0.731,210.27L0.915,209.976L1.099,209.682L1.284,209.388L1.47,209.093L1.656,208.798L1.842,208.503L2.029,208.208L2.217,207.913L2.405,207.618L2.593,207.322L2.782,207.026L2.972,206.73L3.162,206.434L3.353,206.138L3.544,205.841L3.736,205.545L3.928,205.248L4.121,204.951L4.314,204.654L4.508,204.356L4.703,204.059L4.898,203.761L5.093,203.463L5.289,203.165L5.486,202.867L5.683,202.569L5.881,202.27L6.079,201.971L6.278,201.673L6.478,201.374L6.678,201.074L6.879,200.775L7.08,200.475L7.282,200.176L7.484,199.876L7.687,199.576L7.89,199.276L8.095,198.975L8.299,198.675L8.505,198.374L8.711,198.073L8.917,197.772L9.124,197.471L9.332,197.17L9.54,196.868L9.749,196.567L9.959,196.265L10.169,195.963L10.38,195.661L10.591,195.358L10.803,195.056L11.016,194.753L11.229,194.45L11.443,194.147L11.657,193.844L11.873,193.541L12.088,193.238L12.305,192.934L12.522,192.63L12.74,192.326L12.958,192.022L13.177,191.718L13.397,191.414L13.617,191.109L13.838,190.804L14.06,190.5L14.282,190.195L14.505,189.889L14.729,189.584L14.953,189.279L15.179,188.973L15.404,188.667L15.631,188.361L15.858,188.055L16.086,187.749L16.314,187.443L16.544,187.136L16.773,186.829L17.004,186.523L17.235,186.216L17.468,185.908L17.7,185.601L17.934,185.294L18.168,184.986L18.403,184.679L18.639,184.371L18.875,184.063L19.112,183.755L19.35,183.446L19.589,183.138L19.828,182.829L20.068,182.521L20.309,182.212L20.551,181.903L20.793,181.594L21.036,181.284L21.28,180.975L21.525,180.665L21.77,180.356L22.017,180.046L22.264,179.736L22.512,179.426L22.76,179.116L23.01,178.805L23.26,178.495L23.511,178.184L23.763,177.873L24.015,177.563L24.269,177.252L24.523,176.94L24.778,176.629L25.034,176.318L25.291,176.006L25.548,175.695L25.807,175.383L26.066,175.071L26.326,174.759L26.587,174.447L26.849,174.135L27.112,173.822L27.375,173.51L27.64,173.197L27.905,172.884L28.171,172.572L28.438,172.259L28.706,171.945L28.975,171.632L29.244,171.319L29.515,171.006L29.787,170.692L30.059,170.378L30.332,170.065L30.606,169.751L30.882,169.437L31.158,169.123L31.435,168.809L31.713,168.494L31.992,168.18L32.271,167.865L32.552,167.551L32.834,167.236L33.117,166.921L33.4,166.607L33.685,166.292L33.97,165.977L34.257,165.661L34.544,165.346L34.833,165.031L35.123,164.715L35.413,164.4L35.705,164.084L35.997,163.769L36.291,163.453L36.585,163.137L36.881,162.821L37.178,162.505L37.475,162.189L37.774,161.873L38.074,161.556L38.374,161.24L38.676,160.924L38.979,160.607L39.283,160.291L39.588,159.974L39.894,159.657L40.202,159.341L40.51,159.024L40.819,158.707L41.13,158.39L41.442,158.073L41.754,157.756L42.068,157.439L42.383,157.122L42.699,156.805L43.017,156.487L43.335,156.17L43.655,155.853L43.975,155.535L44.297,155.218L44.62,154.9L44.945,154.583L45.27,154.265L45.597,153.947L45.924,153.63L46.254,153.312L46.584,152.994L46.915,152.677L47.248,152.359L47.582,152.041L47.917,151.723L48.253,151.405L48.591,151.087L48.93,150.77L49.27,150.452L49.611,150.134L49.954,149.816L50.298,149.498L50.643,149.18L50.99,148.862L51.338,148.544L51.687,148.226L52.038,147.908L52.389,147.59L52.743,147.272L53.097,146.954L53.453,146.636L53.81,146.318L54.169,146L54.529,145.682L54.89,145.365L55.253,145.047L55.617,144.729L55.983,144.411L56.35,144.093L56.718,143.776L57.088,143.458L57.46,143.14L57.832,142.823L58.207,142.505L58.582,142.188L58.96,141.87L59.338,141.553L59.718,141.235L60.1,140.918L60.483,140.601L60.868,140.284L61.254,139.967L61.642,139.65L62.031,139.333L62.422,139.016L62.814,138.699L63.208,138.382L63.604,138.065L64.001,137.749L64.4,137.432L64.8,137.116L65.203,136.8L65.606,136.484L66.012,136.168L66.418,135.852L66.827,135.536L67.237,135.22L67.649,134.905L68.063,134.589L68.479,134.274L68.896,133.959L69.314,133.643L69.735,133.329L70.157,133.014L70.582,132.699L71.007,132.385L71.435,132.07L71.864,131.756L72.296,131.442L72.729,131.128L73.164,130.815L73.6,130.501L74.039,130.188L74.479,129.875L74.922,129.562L75.366,129.249L75.812,128.936L76.26,128.624L76.71,128.312L77.162,128L77.616,127.688L78.072,127.377L78.529,127.065L78.989,126.754L79.451,126.444L79.915,126.133L80.38,125.823L80.848,125.513L81.318,125.203L81.79,124.893L82.264,124.584L82.74,124.275L83.218,123.966L83.699,123.658L84.181,123.35L84.666,123.042L85.153,122.734L85.642,122.427L86.133,122.12L86.626,121.813L87.122,121.507L87.62,121.201L88.12,120.896L88.622,120.59L89.127,120.285L89.634,119.981L90.143,119.676L90.654,119.373L91.168,119.069L91.685,118.766L92.203,118.463L92.724,118.161L93.248,117.859L93.774,117.557L94.302,117.256L94.833,116.956L95.366,116.655L95.902,116.356L96.441,116.056L96.981,115.757L97.525,115.459L98.071,115.161L98.619,114.863L99.171,114.566L99.724,114.27L100.281,113.974L100.84,113.678L101.402,113.383L101.966,113.089L102.534,112.795L103.104,112.501L103.676,112.208L104.252,111.916L104.83,111.624L105.411,111.333L105.995,111.042L106.582,110.752L107.172,110.463L107.764,110.174L108.36,109.886L108.958,109.599L109.56,109.312L110.164,109.025L110.772,108.74L111.382,108.455L111.996,108.171L112.613,107.887L113.233,107.604L113.855,107.322L114.482,107.041L115.111,106.76L115.743,106.48L116.379,106.201L117.018,105.923L117.66,105.645L118.306,105.368L118.954,105.092L119.607,104.817L120.262,104.543L120.921,104.269L121.584,103.997L122.25,103.725L122.919,103.454L123.592,103.184L124.268,102.915L124.948,102.647L125.632,102.38L126.319,102.113L127.01,101.848L127.705,101.584L128.403,101.32L129.105,101.058L129.811,100.796L130.52,100.536L131.234,100.277L131.951,100.019L132.672,99.761L133.397,99.505L134.127,99.25L134.86,98.997L135.597,98.744L136.338,98.492L137.083,98.242L137.833,97.993L138.586,97.745L139.344,97.498L140.106,97.253L140.873,97.009L141.643,96.766L142.418,96.524L143.198,96.284L143.981,96.045L144.77,95.807L145.562,95.571L146.36,95.336L147.161,95.102L147.968,94.87L148.779,94.64L149.595,94.411L150.415,94.183L151.24,93.957L152.07,93.732L152.905,93.509L153.745,93.288L154.59,93.068L155.44,92.85L156.295,92.633L157.154,92.419L158.02,92.205L158.89,91.994L159.765,91.784L160.646,91.576L161.532,91.37L162.423,91.166L163.32,90.963L164.222,90.763L165.129,90.564L166.043,90.367L166.962,90.173L167.886,89.98L168.816,89.789L169.752,89.6L170.694,89.413L171.642,89.229L172.595,89.046L173.555,88.866L174.52,88.688L175.492,88.512L176.47,88.338L177.454,88.167L178.444,87.998L179.441,87.831L180.444,87.667L181.453,87.505L182.469,87.345L183.492,87.188L184.521,87.034L185.557,86.882L186.6,86.733L187.65,86.586L188.706,86.442L189.769,86.301L190.84,86.162L191.918,86.026L193.002,85.893L194.094,85.763L195.194,85.636L196.301,85.512L197.415,85.39L198.537,85.272L199.666,85.157L200.804,85.045L201.949,84.936L203.101,84.831L204.262,84.728L205.431,84.629L206.608,84.534L207.793,84.442L208.987,84.353L210.189,84.267L211.399,84.186L212.618,84.108L213.845,84.033L215.082,83.963L216.327,83.896L217.581,83.833L218.844,83.773L220.116,83.718L221.398,83.667L222.688,83.62L223.989,83.577L225.298,83.538L226.618,83.503L227.947,83.473L229.286,83.447L230.635,83.426L231.994,83.409L233.363,83.396L234.742,83.389L236.132,83.386L237.533,83.388L238.944,83.394L240.365,83.406L241.798,83.423L243.242,83.444L244.697,83.471L246.163,83.504L247.641,83.541L249.13,83.584L250.631,83.632L252.144,83.686L253.668,83.746L255.205,83.812L256.754,83.883L258.316,83.96L259.89,84.044L261.476,84.133L263.076,84.229L264.689,84.331L266.314,84.439L267.953,84.554L269.606,84.676L271.272,84.804L272.952,84.939L274.646,85.081L276.355,85.23L278.077,85.387L279.815,85.55L281.566,85.721L283.333,85.9" stroke="#1ab73a" stroke-width="2"/></g></g><path class="foreground" aria-hidden="true" d="" display="none"/></g></g><g class="mark-group role-legend" role="graphics-symbol" aria-roledescription="legend" aria-label="Symbol legend titled 'key' for stroke color with 3 values: original, doubled, halved"><g transform="translate(318,0)"><path class="background" aria-hidden="true" d="M0,0h52v53h-52Z" pointer-events="none"/><g><g class="mark-group role-legend-entry"><g transform="translate(0,16)"><path class="background" aria-hidden="true" d="M0,0h0v0h0Z" pointer-events="none"/><g><g class="mark-group role-scope" role="graphics-object" aria-roledescription="group mark container"><g transform="translate(0,0)"><path class="background" aria-hidden="true" d="M0,0h51.5908203125v11h-51.5908203125Z" pointer-events="none" opacity="1"/><g><g class="mark-symbol role-legend-symbol" pointer-events="none"><path transform="translate(6,6)" d="M-5,0L5,0" stroke="#0066ff" stroke-width="1.5" opacity="1"/></g><g class="mark-text role-legend-label" pointer-events="none"><text text-anchor="start" transform="translate(16,9)" font-family="sans-serif" font-size="10px" fill="#000" opacity="1">original</text></g></g><path class="foreground" aria-hidden="true" d="" pointer-events="none" display="none"/></g><g transform="translate(0,13)"><path class="background" aria-hidden="true" d="M0,0h51.5908203125v11h-51.5908203125Z" pointer-events="none" opacity="1"/><g><g class="mark-symbol role-legend-symbol" pointer-events="none"><path transform="translate(6,6)" d="M-5,0L5,0" stroke="#ff0000" stroke-width="1.5" opacity="1"/></g><g class="mark-text role-legend-label" pointer-events="none"><text text-anchor="start" transform="translate(16,9)" font-family="sans-serif" font-size="10px" fill="#000" opacity="1">doubled</text></g></g><path class="foreground" aria-hidden="true" d="" pointer-events="none" display="none"/></g><g transform="translate(0,26)"><path class="background" aria-hidden="true" d="M0,0h51.5908203125v11h-51.5908203125Z" pointer-events="none" opacity="1"/><g><g class="mark-symbol role-legend-symbol" pointer-events="none"><path transform="translate(6,6)" d="M-5,0L5,0" stroke="#1ab73a" stroke-width="1.5" opacity="1"/></g><g class="mark-text role-legend-label" pointer-events="none"><text text-anchor="start" transform="translate(16,9)" font-family="sans-serif" font-size="10px" fill="#000" opacity="1">halved</text></g></g><path class="foreground" aria-hidden="true" d="" pointer-events="none" display="none"/></g></g></g><path class="foreground" aria-hidden="true" d="" pointer-events="none" display="none"/></g></g><g class="mark-text role-legend-title" pointer-events="none"><text text-anchor="start" transform="translate(0,9)" font-family="sans-serif" font-size="11px" font-weight="bold" fill="#000" opacity="1">key</text></g></g><path class="foreground" aria-hidden="true" d="" pointer-events="none" display="none"/></g></g></g><path class="foreground" aria-hidden="true" d="" display="none"/></g></g></g></svg>